<svg width="138" height="138" viewBox="0 0 138 138" fill="none" xmlns="http://www.w3.org/2000/svg">
<g filter="url(#filter0_f_99_460)">
<rect x="17" y="17" width="104" height="104" stroke="#3BADFF" stroke-width="4"/>
</g>
<rect x="22.5" y="22.5" width="93" height="93" stroke="#3BADFF" stroke-width="7"/>
<g filter="url(#filter1_f_99_460)">
<rect x="20" y="20" width="98" height="98" stroke="url(#paint0_linear_99_460)" stroke-width="2"/>
</g>
<rect x="19" y="19" width="100" height="100" fill="url(#paint1_linear_99_460)" fill-opacity="0.4"/>
<path d="M90.1114 47.7798C87.338 44.9917 84.0398 42.7803 80.4071 41.2734C76.7745 39.7665 72.8792 38.9938 68.9463 39C63.0235 39.0001 57.2337 40.7561 52.309 44.0461C47.3844 47.3361 43.5461 52.0123 41.2795 57.4833C39.013 62.9543 38.4199 68.9745 39.5754 74.7825C40.7309 80.5906 43.583 85.9256 47.7711 90.1129C50.5455 92.9183 53.8472 95.1476 57.4863 96.6728C61.1255 98.1979 65.0302 98.9888 68.9761 98.9999C72.922 99.011 76.8312 98.2421 80.4788 96.7375C84.1265 95.2328 87.4407 93.0221 90.2309 90.2324C93.0211 87.4427 95.2322 84.129 96.7371 80.482C98.242 76.835 99.011 72.9265 98.9999 68.9813C98.9888 65.036 98.1978 61.1319 96.6724 57.4934C95.147 53.8549 92.9173 50.5538 90.1114 47.7798ZM89.4359 68.9413C89.4235 80.2256 80.2314 89.4162 68.9463 89.4274C57.6612 89.4387 48.4567 80.2368 48.4567 68.9413C48.4567 57.6458 57.6489 48.4552 68.9463 48.4552C80.2437 48.4552 89.4359 57.6458 89.4359 68.9413Z" fill="#3BADFF"/>
<defs>
<filter id="filter0_f_99_460" x="0" y="0" width="138" height="138" filterUnits="userSpaceOnUse" color-interpolation-filters="sRGB">
<feFlood flood-opacity="0" result="BackgroundImageFix"/>
<feBlend mode="normal" in="SourceGraphic" in2="BackgroundImageFix" result="shape"/>
<feGaussianBlur stdDeviation="7.5" result="effect1_foregroundBlur_99_460"/>
</filter>
<filter id="filter1_f_99_460" x="18" y="18" width="102" height="102" filterUnits="userSpaceOnUse" color-interpolation-filters="sRGB">
<feFlood flood-opacity="0" result="BackgroundImageFix"/>
<feBlend mode="normal" in="SourceGraphic" in2="BackgroundImageFix" result="shape"/>
<feGaussianBlur stdDeviation="0.5" result="effect1_foregroundBlur_99_460"/>
</filter>
<linearGradient id="paint0_linear_99_460" x1="19" y1="69" x2="119" y2="69" gradientUnits="userSpaceOnUse">
<stop stop-color="#3BADFF"/>
<stop offset="1" stop-color="white" stop-opacity="0.7"/>
</linearGradient>
<linearGradient id="paint1_linear_99_460" x1="69" y1="19" x2="69" y2="119" gradientUnits="userSpaceOnUse">
<stop stop-color="#3BADFF"/>
<stop offset="1" stop-color="#3BADFF" stop-opacity="0"/>
</linearGradient>
</defs>
</svg>
