<svg width="138" height="138" viewBox="0 0 138 138" fill="none" xmlns="http://www.w3.org/2000/svg">
<g filter="url(#filter0_f_99_451)">
<rect x="17" y="17" width="104" height="104" stroke="#FF0A47" stroke-width="4"/>
</g>
<rect x="22.5" y="22.5" width="93" height="93" stroke="#FF0A47" stroke-width="7"/>
<g filter="url(#filter1_f_99_451)">
<rect x="20" y="20" width="98" height="98" stroke="url(#paint0_linear_99_451)" stroke-width="2"/>
</g>
<rect x="19" y="19" width="100" height="100" fill="url(#paint1_linear_99_451)" fill-opacity="0.4"/>
<path d="M99 45.566L92.434 39L68.9994 62.4357L45.566 39L39 45.566L62.4357 68.9994L39 92.434L45.566 99L68.9994 75.5632L92.434 99L99 92.434L75.5632 68.9994L99 45.566Z" fill="#FF0A47"/>
<defs>
<filter id="filter0_f_99_451" x="0" y="0" width="138" height="138" filterUnits="userSpaceOnUse" color-interpolation-filters="sRGB">
<feFlood flood-opacity="0" result="BackgroundImageFix"/>
<feBlend mode="normal" in="SourceGraphic" in2="BackgroundImageFix" result="shape"/>
<feGaussianBlur stdDeviation="7.5" result="effect1_foregroundBlur_99_451"/>
</filter>
<filter id="filter1_f_99_451" x="18" y="18" width="102" height="102" filterUnits="userSpaceOnUse" color-interpolation-filters="sRGB">
<feFlood flood-opacity="0" result="BackgroundImageFix"/>
<feBlend mode="normal" in="SourceGraphic" in2="BackgroundImageFix" result="shape"/>
<feGaussianBlur stdDeviation="0.5" result="effect1_foregroundBlur_99_451"/>
</filter>
<linearGradient id="paint0_linear_99_451" x1="19" y1="69" x2="119" y2="69" gradientUnits="userSpaceOnUse">
<stop stop-color="white" stop-opacity="0.7"/>
<stop offset="1" stop-color="#FF0A47"/>
</linearGradient>
<linearGradient id="paint1_linear_99_451" x1="69" y1="19" x2="69" y2="119" gradientUnits="userSpaceOnUse">
<stop stop-color="#FF0A47"/>
<stop offset="1" stop-color="#FF0A47" stop-opacity="0"/>
</linearGradient>
</defs>
</svg>
