<svg width="30" height="30" viewBox="0 0 30 30" fill="none" xmlns="http://www.w3.org/2000/svg">
<path d="M15 30C23.2843 30 30 23.2843 30 15C30 6.71573 23.2843 0 15 0C6.71573 0 0 6.71573 0 15C0 23.2843 6.71573 30 15 30Z" fill="#3BADFF"/>
<path d="M22.0371 7.92661C21.1127 6.99723 20.0133 6.26012 18.8024 5.75781C17.5915 5.2555 16.2931 4.99795 14.9821 5.00002C13.0078 5.00002 11.0779 5.58537 9.43634 6.68203C7.7948 7.77869 6.51537 9.33742 5.75985 11.1611C5.00433 12.9848 4.80665 14.9915 5.19181 16.9275C5.57697 18.8635 6.52767 20.6419 7.92369 22.0377C8.8485 22.9728 9.94907 23.7159 11.1621 24.2243C12.3752 24.7326 13.6767 24.9963 14.992 25C16.3073 25.0037 17.6104 24.7474 18.8263 24.2458C20.0422 23.7443 21.1469 23.0074 22.077 22.0775C23.007 21.1476 23.7441 20.043 24.2457 18.8273C24.7473 17.6117 25.0037 16.3088 25 14.9938C24.9963 13.6787 24.7326 12.3773 24.2241 11.1645C23.7157 9.95164 22.9724 8.85126 22.0371 7.92661ZM21.812 14.9804C21.8078 18.7419 18.7438 21.8054 14.9821 21.8092C11.2204 21.8129 8.15223 18.7456 8.15223 14.9804C8.15223 11.2153 11.2163 8.15173 14.9821 8.15173C18.7479 8.15173 21.812 11.2153 21.812 14.9804Z" fill="white"/>
</svg>
