<svg width="15" height="15" viewBox="0 0 15 15" fill="none" xmlns="http://www.w3.org/2000/svg">
<path d="M7.5 15C11.6421 15 15 11.6421 15 7.5C15 3.35786 11.6421 0 7.5 0C3.35786 0 0 3.35786 0 7.5C0 11.6421 3.35786 15 7.5 15Z" fill="#F0BB00"/>
<g clip-path="url(#clip0_413_34)">
<path d="M10.9687 3.58652C10.7803 3.40018 10.5562 3.25242 10.3095 3.15175C10.0627 3.05108 9.79805 2.9995 9.53088 3C9.05923 2.99899 8.60178 3.15864 8.23625 3.45182C7.87073 3.745 7.61967 4.15363 7.52575 4.60826C7.43183 5.0629 7.50084 5.5355 7.72105 5.94576C7.94126 6.35602 8.29909 6.67862 8.73373 6.85875C9.16837 7.03889 9.65301 7.06544 10.1053 6.93389C10.5576 6.80235 10.9496 6.52082 11.2148 6.13715C11.4799 5.75349 11.6019 5.29135 11.5599 4.82926C11.5179 4.36718 11.3145 3.93366 10.9843 3.60236L10.9687 3.58652ZM10.9228 5.00083C10.9227 5.27147 10.841 5.536 10.688 5.76097C10.5351 5.98594 10.3177 6.16126 10.0635 6.26476C9.80928 6.36826 9.52956 6.3953 9.25971 6.34245C8.98987 6.28961 8.742 6.15925 8.54746 5.96787C8.35292 5.77648 8.22042 5.53266 8.16673 5.26722C8.11304 5.00178 8.14056 4.72664 8.24582 4.47659C8.35107 4.22653 8.52933 4.01278 8.75807 3.86236C8.9868 3.71194 9.25574 3.6316 9.53088 3.6315C9.89953 3.63249 10.2528 3.77699 10.5135 4.03342C10.7741 4.28985 10.921 4.63736 10.9219 4.99998L10.9228 5.00083Z" fill="white"/>
<path d="M11.5714 8.00224L11.1255 7.56381L9.53437 9.12909L7.07446 6.56901L5.48296 5.0039L7.07446 3.43861L6.62855 3L5.03723 4.56546L3.4459 3L3 3.43861L4.5915 5.0039L3 6.56919L3.4459 7.00779L5.03723 5.44233L6.62838 7.00762L9.08916 9.56702L7.49715 11.1328L7.94288 11.5711L9.53437 10.0056L11.1255 11.5711L11.5714 11.1325L9.9801 9.56719L11.5714 8.00224Z" fill="white"/>
<path d="M3.58745 8.16617C3.2595 8.49641 3.05782 8.9281 3.01663 9.38797C2.97545 9.84785 3.0973 10.3076 3.36151 10.6891C3.62572 11.0707 4.01601 11.3506 4.46614 11.4813C4.91627 11.612 5.39851 11.5854 5.83102 11.4062C6.26353 11.2269 6.61966 10.906 6.83898 10.4979C7.05829 10.0897 7.12728 9.61949 7.03423 9.167C6.94118 8.71451 6.69183 8.30763 6.32849 8.0154C5.96516 7.72318 5.51022 7.56362 5.04088 7.5638C4.77373 7.56331 4.50912 7.61487 4.26234 7.71551C4.01555 7.81615 3.79148 7.96387 3.60304 8.15015L3.58745 8.16617ZM5.04088 8.1953C5.31604 8.19534 5.58502 8.27563 5.81378 8.42603C6.04255 8.57643 6.22085 8.79018 6.32611 9.04025C6.43138 9.29031 6.4589 9.56547 6.40518 9.83093C6.35147 10.0964 6.21893 10.3402 6.02434 10.5316C5.82975 10.7229 5.58184 10.8532 5.31196 10.906C5.04208 10.9588 4.76235 10.9316 4.50814 10.828C4.25394 10.7244 4.03668 10.549 3.88384 10.3239C3.731 10.0989 3.64944 9.83427 3.64947 9.56361C3.64997 9.20081 3.79674 8.85301 4.05758 8.5965C4.31842 8.33999 4.67204 8.19571 5.04088 8.1953Z" fill="white"/>
</g>
<defs>
<clipPath id="clip0_413_34">
<rect width="8.57143" height="8.57143" fill="white" transform="translate(3 3)"/>
</clipPath>
</defs>
</svg>
