<svg width="30" height="30" viewBox="0 0 30 30" fill="none" xmlns="http://www.w3.org/2000/svg">
<path d="M15 30C23.2843 30 30 23.2843 30 15C30 6.71573 23.2843 0 15 0C6.71573 0 0 6.71573 0 15C0 23.2843 6.71573 30 15 30Z" fill="#04B75C"/>
<path d="M11.625 15.75C10.9575 15.75 10.305 15.5521 9.74995 15.1812C9.19493 14.8104 8.76235 14.2833 8.50691 13.6666C8.25146 13.0499 8.18462 12.3713 8.31485 11.7166C8.44507 11.0619 8.76651 10.4605 9.23851 9.98852C9.71052 9.51651 10.3119 9.19508 10.9666 9.06485C11.6213 8.93463 12.2999 9.00146 12.9166 9.25691C13.5333 9.51235 14.0604 9.94494 14.4312 10.5C14.8021 11.055 15 11.7075 15 12.375C14.999 13.2698 14.6431 14.1277 14.0104 14.7604C13.3777 15.3931 12.5198 15.749 11.625 15.75ZM11.625 10.5C11.2542 10.5 10.8916 10.61 10.5833 10.816C10.275 11.022 10.0346 11.3149 9.89273 11.6575C9.75081 12.0001 9.71368 12.3771 9.78603 12.7408C9.85837 13.1045 10.037 13.4386 10.2992 13.7008C10.5614 13.963 10.8955 14.1416 11.2592 14.214C11.6229 14.2863 11.9999 14.2492 12.3425 14.1073C12.6851 13.9654 12.978 13.725 13.184 13.4167C13.39 13.1084 13.5 12.7458 13.5 12.375C13.5 11.8777 13.3025 11.4008 12.9508 11.0492C12.5992 10.6975 12.1223 10.5 11.625 10.5ZM17.25 21C17.2488 20.0058 16.8533 19.0527 16.1503 18.3497C15.4473 17.6467 14.4942 17.2512 13.5 17.25H9.75C8.7558 17.2512 7.80267 17.6467 7.09966 18.3497C6.39666 19.0527 6.00119 20.0058 6 21L6 24H7.5V21C7.5 20.4033 7.73705 19.831 8.15901 19.409C8.58097 18.9871 9.15326 18.75 9.75 18.75H13.5C14.0967 18.75 14.669 18.9871 15.091 19.409C15.5129 19.831 15.75 20.4033 15.75 21V24H17.25V21ZM19.125 12.75C18.4575 12.75 17.805 12.5521 17.25 12.1812C16.6949 11.8104 16.2624 11.2833 16.0069 10.6666C15.7515 10.0499 15.6846 9.37126 15.8148 8.71657C15.9451 8.06189 16.2665 7.46052 16.7385 6.98852C17.2105 6.51651 17.8119 6.19508 18.4666 6.06485C19.1213 5.93463 19.7999 6.00146 20.4166 6.25691C21.0333 6.51235 21.5604 6.94494 21.9312 7.49995C22.3021 8.05497 22.5 8.70749 22.5 9.375C22.499 10.2698 22.1431 11.1277 21.5104 11.7604C20.8777 12.3931 20.0198 12.749 19.125 12.75ZM19.125 7.5C18.7542 7.5 18.3916 7.60997 18.0833 7.816C17.775 8.02202 17.5346 8.31486 17.3927 8.65747C17.2508 9.00008 17.2137 9.37708 17.286 9.7408C17.3584 10.1045 17.537 10.4386 17.7992 10.7008C18.0614 10.963 18.3955 11.1416 18.7592 11.214C19.1229 11.2863 19.4999 11.2492 19.8425 11.1073C20.1851 10.9654 20.478 10.725 20.684 10.4167C20.89 10.1084 21 9.74584 21 9.375C21 8.87772 20.8025 8.40081 20.4508 8.04918C20.0992 7.69755 19.6223 7.5 19.125 7.5ZM24 18C23.9988 17.0058 23.6033 16.0527 22.9003 15.3497C22.1973 14.6467 21.2442 14.2512 20.25 14.25H17.25V15.75H20.25C20.8467 15.75 21.419 15.9871 21.841 16.409C22.2629 16.831 22.5 17.4033 22.5 18V21H24V18Z" fill="white"/>
</svg>