<svg width="138" height="138" viewBox="0 0 138 138" fill="none" xmlns="http://www.w3.org/2000/svg">
<g filter="url(#filter0_f_398_129)">
<rect x="17" y="17" width="104" height="104" stroke="#F0BB00" stroke-width="4"/>
</g>
<rect x="22.5" y="22.5" width="93" height="93" stroke="#F0BB00" stroke-width="7"/>
<g filter="url(#filter1_f_398_129)">
<rect x="20" y="20" width="98" height="98" stroke="url(#paint0_linear_398_129)" stroke-width="2"/>
</g>
<rect x="19" y="19" width="100" height="100" fill="url(#paint1_linear_398_129)" fill-opacity="0.4"/>
<g clip-path="url(#clip0_398_129)">
<path d="M89 39H51.5C47.365 39 44 42.365 44 46.5V91.5C44 95.635 47.365 99 51.5 99H94V44C94 41.2425 91.7575 39 89 39ZM89 84H59V44H69V66.5L75.25 60.25L81.5 66.5V44H89V84ZM51.5 44H54V84H51.5C50.6225 84 49.7825 84.1525 49 84.43V46.5C49 45.1225 50.1225 44 51.5 44ZM51.5 94C50.1225 94 49 92.8775 49 91.5C49 90.1225 50.1225 89 51.5 89H89V94H51.5Z" fill="#F0BB00"/>
</g>
<defs>
<filter id="filter0_f_398_129" x="0" y="0" width="138" height="138" filterUnits="userSpaceOnUse" color-interpolation-filters="sRGB">
<feFlood flood-opacity="0" result="BackgroundImageFix"/>
<feBlend mode="normal" in="SourceGraphic" in2="BackgroundImageFix" result="shape"/>
<feGaussianBlur stdDeviation="7.5" result="effect1_foregroundBlur_398_129"/>
</filter>
<filter id="filter1_f_398_129" x="18" y="18" width="102" height="102" filterUnits="userSpaceOnUse" color-interpolation-filters="sRGB">
<feFlood flood-opacity="0" result="BackgroundImageFix"/>
<feBlend mode="normal" in="SourceGraphic" in2="BackgroundImageFix" result="shape"/>
<feGaussianBlur stdDeviation="0.5" result="effect1_foregroundBlur_398_129"/>
</filter>
<linearGradient id="paint0_linear_398_129" x1="19" y1="69" x2="119" y2="69" gradientUnits="userSpaceOnUse">
<stop stop-color="#F0BB00"/>
</linearGradient>
<linearGradient id="paint1_linear_398_129" x1="69" y1="19" x2="69" y2="119" gradientUnits="userSpaceOnUse">
<stop stop-color="#F0BB00"/>
<stop offset="1" stop-color="#F0BB00" stop-opacity="0"/>
</linearGradient>
<clipPath id="clip0_398_129">
<rect width="60" height="60" fill="white" transform="translate(39 39)"/>
</clipPath>
</defs>
</svg>