<svg width="30" height="30" viewBox="0 0 30 30" fill="none" xmlns="http://www.w3.org/2000/svg">
<path d="M15 30C23.2843 30 30 23.2843 30 15C30 6.71573 23.2843 0 15 0C6.71573 0 0 6.71573 0 15C0 23.2843 6.71573 30 15 30Z" fill="#F0BB00"/>
<g clip-path="url(#clip0_560_115)">
<path d="M23.877 12.5955C23.7236 12.1071 23.4171 11.6811 23.0028 11.3805C22.5886 11.0798 22.0886 10.9205 21.5767 10.926H18.3L17.3047 7.82397C17.1482 7.33568 16.8407 6.90973 16.4265 6.60751C16.0123 6.3053 15.5128 6.14246 15 6.14246C14.4872 6.14246 13.9877 6.3053 13.5735 6.60751C13.1593 6.90973 12.8518 7.33568 12.6952 7.82397L11.7 10.926H8.42325C7.91306 10.9267 7.41614 11.0886 7.00348 11.3886C6.59083 11.6887 6.28353 12.1114 6.12549 12.5965C5.96745 13.0816 5.96675 13.6042 6.12349 14.0898C6.28023 14.5753 6.5864 14.9988 6.99825 15.3L9.66525 17.25L8.65125 20.3902C8.48738 20.8773 8.48531 21.4042 8.64533 21.8925C8.80536 22.3808 9.11891 22.8044 9.53925 23.1C9.95239 23.4051 10.453 23.5685 10.9666 23.5659C11.4802 23.5634 11.9792 23.3949 12.3892 23.0857L15 21.1642L17.6115 23.0835C18.0239 23.3868 18.5218 23.5516 19.0338 23.5541C19.5457 23.5566 20.0452 23.3967 20.4606 23.0973C20.8759 22.798 21.1856 22.3747 21.3452 21.8883C21.5048 21.4019 21.506 20.8774 21.3487 20.3902L20.3348 17.25L23.0047 15.3C23.4213 15.0026 23.7311 14.5791 23.8882 14.092C24.0453 13.6049 24.0413 13.0802 23.877 12.5955ZM22.1197 14.0887L19.0118 16.3605C18.8841 16.4536 18.7891 16.5847 18.7404 16.735C18.6916 16.8853 18.6916 17.0471 18.7402 17.1975L19.9215 20.85C19.9813 21.0352 19.9808 21.2347 19.92 21.4196C19.8593 21.6045 19.7415 21.7655 19.5836 21.8792C19.4256 21.993 19.2357 22.0538 19.041 22.0528C18.8464 22.0518 18.657 21.9891 18.5002 21.8737L15.444 19.6237C15.3153 19.5292 15.1597 19.4782 15 19.4782C14.8403 19.4782 14.6847 19.5292 14.556 19.6237L11.4997 21.8737C11.3431 21.9907 11.1532 22.0546 10.9577 22.0564C10.7622 22.0582 10.5712 21.9977 10.4124 21.8836C10.2536 21.7695 10.1353 21.6078 10.0746 21.422C10.0139 21.2361 10.0139 21.0358 10.0747 20.85L11.2597 17.1975C11.3084 17.0471 11.3084 16.8853 11.2596 16.735C11.2109 16.5847 11.1159 16.4536 10.9882 16.3605L7.88025 14.0887C7.72373 13.9741 7.60743 13.813 7.54796 13.6283C7.48849 13.4437 7.48889 13.2449 7.54911 13.0605C7.60933 12.8761 7.72629 12.7155 7.88328 12.6015C8.04027 12.4875 8.22926 12.4261 8.42325 12.426H12.2483C12.407 12.426 12.5617 12.3756 12.69 12.282C12.8183 12.1885 12.9137 12.0566 12.9622 11.9055L14.1248 8.28222C14.1844 8.0968 14.3014 7.93511 14.4588 7.8204C14.6162 7.7057 14.806 7.64389 15.0007 7.64389C15.1955 7.64389 15.3853 7.7057 15.5427 7.8204C15.7001 7.93511 15.8171 8.0968 15.8767 8.28222L17.0392 11.9055C17.0878 12.0566 17.1832 12.1885 17.3115 12.282C17.4398 12.3756 17.5945 12.426 17.7532 12.426H21.5782C21.7722 12.4261 21.9612 12.4875 22.1182 12.6015C22.2752 12.7155 22.3922 12.8761 22.4524 13.0605C22.5126 13.2449 22.513 13.4437 22.4535 13.6283C22.3941 13.813 22.2778 13.9741 22.1213 14.0887H22.1197Z" fill="white"/>
</g>
<defs>
<clipPath id="clip0_560_115">
<rect width="18" height="18" fill="white" transform="translate(6 6)"/>
</clipPath>
</defs>
</svg>
