<svg width="30" height="30" viewBox="0 0 30 30" fill="none" xmlns="http://www.w3.org/2000/svg">
<path d="M15 30C23.2843 30 30 23.2843 30 15C30 6.71573 23.2843 0 15 0C6.71573 0 0 6.71573 0 15C0 23.2843 6.71573 30 15 30Z" fill="#00E1E1"/>
<path d="M18.5817 11.9067L19.7517 13.0942L14.9242 17.85C14.6017 18.1725 14.1775 18.3333 13.7517 18.3333C13.3258 18.3333 12.8975 18.1708 12.5717 17.8458L10.2533 15.5992L11.4142 14.4017L13.7417 16.6575L18.5817 11.9067ZM25 15C25 20.5142 20.5142 25 15 25C9.48583 25 5 20.5142 5 15C5 9.48583 9.48583 5 15 5C20.5142 5 25 9.48583 25 15ZM23.3333 15C23.3333 10.405 19.595 6.66667 15 6.66667C10.405 6.66667 6.66667 10.405 6.66667 15C6.66667 19.595 10.405 23.3333 15 23.3333C19.595 23.3333 23.3333 19.595 23.3333 15Z" fill="white"/>
</svg>
