<svg width="50" height="50" viewBox="0 0 50 50" fill="none" xmlns="http://www.w3.org/2000/svg">
<g filter="url(#filter0_f_446_9)">
<path d="M25 35C30.5228 35 35 30.5228 35 25C35 19.4772 30.5228 15 25 15C19.4772 15 15 19.4772 15 25C15 30.5228 19.4772 35 25 35Z" fill="#F0BB00"/>
</g>
<path d="M25 35C30.5228 35 35 30.5228 35 25C35 19.4772 30.5228 15 25 15C19.4772 15 15 19.4772 15 25C15 30.5228 19.4772 35 25 35Z" fill="#F0BB00"/>
<g clip-path="url(#clip0_446_9)">
<path d="M29.625 19.782C29.3738 19.5336 29.075 19.3366 28.746 19.2023C28.4169 19.0681 28.0641 18.9993 27.7079 19C27.079 18.9986 26.4691 19.2115 25.9817 19.6024C25.4943 19.9933 25.1596 20.5382 25.0344 21.1444C24.9092 21.7505 25.0012 22.3807 25.2948 22.9277C25.5884 23.4747 26.0655 23.9048 26.645 24.145C27.2245 24.3852 27.8707 24.4206 28.4738 24.2452C29.0768 24.0698 29.5995 23.6944 29.9531 23.1829C30.3066 22.6713 30.4692 22.0551 30.4132 21.439C30.3572 20.8229 30.086 20.2449 29.6458 19.8031L29.625 19.782ZM29.5638 21.6678C29.5636 22.0286 29.4547 22.3813 29.2507 22.6813C29.0468 22.9813 28.757 23.215 28.4181 23.353C28.0791 23.491 27.7061 23.5271 27.3463 23.4566C26.9865 23.3861 26.656 23.2123 26.3967 22.9572C26.1373 22.702 25.9606 22.3769 25.889 22.023C25.8174 21.669 25.8541 21.3022 25.9945 20.9688C26.1348 20.6354 26.3725 20.3504 26.6775 20.1498C26.9824 19.9493 27.341 19.8421 27.7079 19.842C28.1994 19.8433 28.6704 20.036 29.018 20.3779C29.3655 20.7198 29.5614 21.1831 29.5626 21.6666L29.5638 21.6678Z" fill="white"/>
<path d="M30.4286 25.6697L29.834 25.0851L27.7125 27.1721L24.4326 23.7587L22.3106 21.6719L24.4326 19.5848L23.8381 19L21.7163 21.0873L19.5945 19L19 19.5848L21.122 21.6719L19 23.7589L19.5945 24.3437L21.7163 22.2564L23.8378 24.3435L27.1189 27.756L24.9962 29.8438L25.5905 30.4281L27.7125 28.3408L29.834 30.4281L30.4286 29.8433L28.3068 27.7563L30.4286 25.6697Z" fill="white"/>
<path d="M19.7833 25.8882C19.346 26.3285 19.0771 26.9041 19.0222 27.5173C18.9673 28.1305 19.1297 28.7434 19.482 29.2522C19.8343 29.7609 20.3547 30.1341 20.9548 30.3083C21.555 30.4826 22.198 30.4473 22.7747 30.2083C23.3514 29.9693 23.8262 29.5413 24.1186 28.9971C24.4111 28.4529 24.503 27.826 24.379 27.2227C24.2549 26.6193 23.9224 26.0768 23.438 25.6872C22.9535 25.2976 22.347 25.0848 21.7212 25.0851C21.365 25.0844 21.0122 25.1532 20.6831 25.2873C20.3541 25.4215 20.0553 25.6185 19.8041 25.8669L19.7833 25.8882ZM21.7212 25.9271C22.0881 25.9271 22.4467 26.0342 22.7517 26.2347C23.0567 26.4352 23.2945 26.7202 23.4348 27.0537C23.5752 27.3871 23.6119 27.754 23.5402 28.1079C23.4686 28.4618 23.2919 28.7869 23.0325 29.0421C22.773 29.2972 22.4425 29.471 22.0826 29.5413C21.7228 29.6117 21.3498 29.5755 21.0109 29.4374C20.6719 29.2992 20.3822 29.0653 20.1785 28.7652C19.9747 28.4651 19.8659 28.1124 19.866 27.7515C19.8666 27.2677 20.0623 26.804 20.4101 26.462C20.7579 26.12 21.2294 25.9276 21.7212 25.9271Z" fill="white"/>
</g>
<defs>
<filter id="filter0_f_446_9" x="0" y="0" width="50" height="50" filterUnits="userSpaceOnUse" color-interpolation-filters="sRGB">
<feFlood flood-opacity="0" result="BackgroundImageFix"/>
<feBlend mode="normal" in="SourceGraphic" in2="BackgroundImageFix" result="shape"/>
<feGaussianBlur stdDeviation="7.5" result="effect1_foregroundBlur_446_9"/>
</filter>
<clipPath id="clip0_446_9">
<rect width="11.4286" height="11.4286" fill="white" transform="translate(19 19)"/>
</clipPath>
</defs>
</svg>