<svg width="10" height="10" viewBox="0 0 10 10" fill="none" xmlns="http://www.w3.org/2000/svg">
<path d="M3.125 5.41667C2.75416 5.41667 2.39165 5.3067 2.08331 5.10067C1.77496 4.89465 1.53464 4.60181 1.39273 4.2592C1.25081 3.91659 1.21368 3.53959 1.28603 3.17587C1.35837 2.81216 1.53695 2.47807 1.79917 2.21584C2.0614 1.95362 2.39549 1.77504 2.75921 1.7027C3.12292 1.63035 3.49992 1.66748 3.84253 1.80939C4.18514 1.95131 4.47798 2.19163 4.68401 2.49997C4.89003 2.80832 5 3.17083 5 3.54167C4.99945 4.03878 4.80173 4.51537 4.45022 4.86688C4.09871 5.2184 3.62211 5.41612 3.125 5.41667ZM3.125 2.5C2.91898 2.5 2.71758 2.56109 2.54628 2.67555C2.37498 2.79001 2.24147 2.9527 2.16263 3.14304C2.08378 3.33338 2.06316 3.54282 2.10335 3.74489C2.14354 3.94695 2.24275 4.13256 2.38843 4.27824C2.53411 4.42392 2.71972 4.52313 2.92178 4.56332C3.12384 4.60351 3.33329 4.58288 3.52363 4.50404C3.71397 4.4252 3.87665 4.29169 3.99111 4.12039C4.10557 3.94909 4.16667 3.74769 4.16667 3.54167C4.16667 3.2654 4.05692 3.00045 3.86157 2.8051C3.66622 2.60975 3.40127 2.5 3.125 2.5ZM6.25 8.33333C6.24934 7.781 6.02963 7.25148 5.63908 6.86093C5.24852 6.47037 4.719 6.25066 4.16667 6.25H2.08333C1.531 6.25066 1.00148 6.47037 0.610925 6.86093C0.220367 7.25148 0.000661607 7.781 0 8.33333L0 10H0.833333V8.33333C0.833333 8.00181 0.965029 7.68387 1.19945 7.44945C1.43387 7.21503 1.75181 7.08333 2.08333 7.08333H4.16667C4.49819 7.08333 4.81613 7.21503 5.05055 7.44945C5.28497 7.68387 5.41667 8.00181 5.41667 8.33333V10H6.25V8.33333ZM7.29167 3.75C6.92083 3.75 6.55831 3.64003 6.24997 3.43401C5.94163 3.22798 5.70131 2.93514 5.55939 2.59253C5.41748 2.24992 5.38035 1.87292 5.45269 1.50921C5.52504 1.14549 5.70362 0.811399 5.96584 0.549176C6.22807 0.286952 6.56216 0.108376 6.92587 0.0360284C7.28959 -0.0363189 7.66659 0.000812411 8.0092 0.142727C8.35181 0.284641 8.64464 0.524965 8.85067 0.833307C9.0567 1.14165 9.16667 1.50416 9.16667 1.875C9.16612 2.37211 8.96839 2.84871 8.61688 3.20022C8.26537 3.55173 7.78878 3.74945 7.29167 3.75ZM7.29167 0.833334C7.08564 0.833334 6.88425 0.894427 6.71295 1.00889C6.54165 1.12335 6.40813 1.28603 6.32929 1.47637C6.25045 1.66671 6.22982 1.87616 6.27002 2.07822C6.31021 2.28028 6.40942 2.46589 6.5551 2.61157C6.70078 2.75725 6.88638 2.85646 7.08845 2.89665C7.29051 2.93685 7.49996 2.91622 7.6903 2.83738C7.88064 2.75853 8.04332 2.62502 8.15778 2.45372C8.27224 2.28242 8.33333 2.08102 8.33333 1.875C8.33333 1.59873 8.22359 1.33378 8.02824 1.13843C7.83289 0.943081 7.56793 0.833334 7.29167 0.833334ZM10 6.66667C9.99934 6.11434 9.77963 5.58482 9.38908 5.19426C8.99852 4.8037 8.469 4.584 7.91667 4.58333H6.25V5.41667H7.91667C8.24819 5.41667 8.56613 5.54836 8.80055 5.78278C9.03497 6.0172 9.16667 6.33515 9.16667 6.66667V8.33333H10V6.66667Z" fill="#828282"/>
</svg>
