<svg width="138" height="138" viewBox="0 0 138 138" fill="none" xmlns="http://www.w3.org/2000/svg">
<g filter="url(#filter0_f_146_1461)">
<rect x="17" y="17" width="104" height="104" stroke="#04B75C" stroke-width="4"/>
</g>
<rect x="22.5" y="22.5" width="93" height="93" stroke="#04B75C" stroke-width="7"/>
<g filter="url(#filter1_f_146_1461)">
<rect x="20" y="20" width="98" height="98" stroke="url(#paint0_linear_146_1461)" stroke-width="2"/>
</g>
<rect x="19" y="19" width="100" height="100" fill="url(#paint1_linear_146_1461)" fill-opacity="0.4"/>
<path d="M57.75 71.5C55.525 71.5 53.3499 70.8402 51.4998 69.604C49.6498 68.3679 48.2078 66.6109 47.3564 64.5552C46.5049 62.4995 46.2821 60.2375 46.7162 58.0552C47.1502 55.873 48.2217 53.8684 49.795 52.2951C51.3684 50.7217 53.3729 49.6503 55.5552 49.2162C57.7375 48.7821 59.9995 49.0049 62.0552 49.8564C64.1109 50.7078 65.8679 52.1498 67.104 53.9998C68.3402 55.8499 69 58.025 69 60.25C68.9967 63.2327 67.8104 66.0922 65.7013 68.2013C63.5922 70.3104 60.7327 71.4967 57.75 71.5ZM57.75 54C56.5139 54 55.3055 54.3666 54.2777 55.0533C53.2499 55.7401 52.4488 56.7162 51.9758 57.8582C51.5027 59.0003 51.3789 60.2569 51.6201 61.4693C51.8612 62.6817 52.4565 63.7953 53.3306 64.6694C54.2047 65.5435 55.3183 66.1388 56.5307 66.3799C57.7431 66.6211 58.9997 66.4973 60.1418 66.0243C61.2838 65.5512 62.2599 64.7501 62.9467 63.7223C63.6334 62.6945 64 61.4861 64 60.25C64 58.5924 63.3415 57.0027 62.1694 55.8306C60.9973 54.6585 59.4076 54 57.75 54ZM76.5 89C76.496 85.686 75.1778 82.5089 72.8344 80.1656C70.4911 77.8222 67.314 76.504 64 76.5H51.5C48.186 76.504 45.0089 77.8222 42.6655 80.1656C40.3222 82.5089 39.004 85.686 39 89L39 99H44V89C44 87.0109 44.7902 85.1032 46.1967 83.6967C47.6032 82.2902 49.5109 81.5 51.5 81.5H64C65.9891 81.5 67.8968 82.2902 69.3033 83.6967C70.7098 85.1032 71.5 87.0109 71.5 89V99H76.5V89ZM82.75 61.5C80.525 61.5 78.3499 60.8402 76.4998 59.604C74.6498 58.3679 73.2078 56.6109 72.3564 54.5552C71.5049 52.4995 71.2821 50.2375 71.7162 48.0552C72.1502 45.873 73.2217 43.8684 74.7951 42.2951C76.3684 40.7217 78.3729 39.6503 80.5552 39.2162C82.7375 38.7821 84.9995 39.0049 87.0552 39.8564C89.1109 40.7078 90.8679 42.1498 92.104 43.9998C93.3402 45.8499 94 48.025 94 50.25C93.9967 53.2327 92.8104 56.0922 90.7013 58.2013C88.5922 60.3104 85.7327 61.4967 82.75 61.5ZM82.75 44C81.5139 44 80.3055 44.3666 79.2777 45.0533C78.2499 45.7401 77.4488 46.7162 76.9758 47.8582C76.5027 49.0003 76.3789 50.2569 76.6201 51.4693C76.8612 52.6817 77.4565 53.7953 78.3306 54.6694C79.2047 55.5435 80.3183 56.1388 81.5307 56.3799C82.7431 56.6211 83.9997 56.4973 85.1418 56.0243C86.2838 55.5512 87.2599 54.7501 87.9467 53.7223C88.6334 52.6945 89 51.4861 89 50.25C89 48.5924 88.3415 47.0027 87.1694 45.8306C85.9973 44.6585 84.4076 44 82.75 44ZM99 79C98.996 75.686 97.6778 72.5089 95.3345 70.1656C92.9911 67.8222 89.814 66.504 86.5 66.5H76.5V71.5H86.5C88.4891 71.5 90.3968 72.2902 91.8033 73.6967C93.2098 75.1032 94 77.0109 94 79V89H99V79Z" fill="#04B75C"/>
<defs>
<filter id="filter0_f_146_1461" x="0" y="0" width="138" height="138" filterUnits="userSpaceOnUse" color-interpolation-filters="sRGB">
<feFlood flood-opacity="0" result="BackgroundImageFix"/>
<feBlend mode="normal" in="SourceGraphic" in2="BackgroundImageFix" result="shape"/>
<feGaussianBlur stdDeviation="7.5" result="effect1_foregroundBlur_146_1461"/>
</filter>
<filter id="filter1_f_146_1461" x="18" y="18" width="102" height="102" filterUnits="userSpaceOnUse" color-interpolation-filters="sRGB">
<feFlood flood-opacity="0" result="BackgroundImageFix"/>
<feBlend mode="normal" in="SourceGraphic" in2="BackgroundImageFix" result="shape"/>
<feGaussianBlur stdDeviation="0.5" result="effect1_foregroundBlur_146_1461"/>
</filter>
<linearGradient id="paint1_linear_146_1461" x1="69" y1="19" x2="69" y2="119" gradientUnits="userSpaceOnUse">
<stop stop-color="#04B75C"/>
<stop offset="1" stop-color="#04B75C" stop-opacity="0"/>
</linearGradient>
</defs>
</svg>
