<svg width="15" height="15" viewBox="0 0 15 15" fill="none" xmlns="http://www.w3.org/2000/svg">
<path d="M7.5 15C11.6421 15 15 11.6421 15 7.5C15 3.35786 11.6421 0 7.5 0C3.35786 0 0 3.35786 0 7.5C0 11.6421 3.35786 15 7.5 15Z" fill="#F0BB00"/>
<g clip-path="url(#clip0_137_458)">
<path d="M10.9687 3.58651C10.7803 3.40018 10.5563 3.25241 10.3095 3.15174C10.0627 3.05108 9.79808 2.9995 9.53091 3C9.05927 2.99899 8.60181 3.15863 8.23628 3.45182C7.87076 3.745 7.6197 4.15362 7.52578 4.60826C7.43186 5.0629 7.50087 5.5355 7.72108 5.94576C7.94129 6.35601 8.29912 6.67862 8.73376 6.85875C9.1684 7.03888 9.65305 7.06543 10.1053 6.93389C10.5576 6.80234 10.9497 6.52082 11.2148 6.13715C11.48 5.75348 11.6019 5.29134 11.5599 4.82926C11.5179 4.36717 11.3145 3.93365 10.9843 3.60236L10.9687 3.58651ZM10.9228 5.00083C10.9227 5.27147 10.841 5.53599 10.688 5.76097C10.5351 5.98594 10.3178 6.16126 10.0635 6.26476C9.80931 6.36826 9.52959 6.39529 9.25974 6.34245C8.9899 6.2896 8.74203 6.15925 8.54749 5.96786C8.35295 5.77648 8.22046 5.53266 8.16676 5.26722C8.11307 5.00178 8.1406 4.72664 8.24585 4.47658C8.3511 4.22653 8.52936 4.01278 8.7581 3.86236C8.98683 3.71194 9.25577 3.6316 9.53091 3.6315C9.89956 3.63249 10.2528 3.77699 10.5135 4.03342C10.7742 4.28985 10.921 4.63735 10.922 4.99997L10.9228 5.00083Z" fill="white"/>
<path d="M11.5714 8.00224L11.1255 7.56381L9.53437 9.12909L7.07446 6.56901L5.48296 5.0039L7.07446 3.43861L6.62855 3L5.03723 4.56546L3.4459 3L3 3.43861L4.5915 5.0039L3 6.56919L3.4459 7.00779L5.03723 5.44233L6.62838 7.00762L9.08916 9.56702L7.49715 11.1328L7.94288 11.5711L9.53437 10.0056L11.1255 11.5711L11.5714 11.1325L9.9801 9.56719L11.5714 8.00224Z" fill="white"/>
<path d="M3.58742 8.16617C3.25947 8.49641 3.05779 8.92811 3.0166 9.38798C2.97542 9.84785 3.09727 10.3076 3.36148 10.6891C3.62569 11.0707 4.01598 11.3506 4.46611 11.4813C4.91624 11.612 5.39848 11.5854 5.83099 11.4062C6.2635 11.2269 6.61963 10.906 6.83895 10.4979C7.05826 10.0897 7.12725 9.61949 7.0342 9.167C6.94115 8.71451 6.6918 8.30763 6.32846 8.01541C5.96512 7.72318 5.51018 7.56362 5.04085 7.56381C4.7737 7.56332 4.50909 7.61488 4.26231 7.71552C4.01552 7.81615 3.79145 7.96387 3.60301 8.15015L3.58742 8.16617ZM5.04085 8.19531C5.31601 8.19534 5.58499 8.27563 5.81375 8.42603C6.04252 8.57643 6.22081 8.79018 6.32608 9.04025C6.43135 9.29032 6.45887 9.56548 6.40515 9.83093C6.35144 10.0964 6.2189 10.3402 6.02431 10.5316C5.82972 10.7229 5.58181 10.8532 5.31193 10.906C5.04205 10.9588 4.76232 10.9316 4.50811 10.828C4.25391 10.7244 4.03665 10.549 3.88381 10.3239C3.73097 10.0989 3.64941 9.83427 3.64944 9.56362C3.64994 9.20081 3.79671 8.85301 4.05755 8.5965C4.31839 8.33999 4.67201 8.19571 5.04085 8.19531Z" fill="white"/>
</g>
<defs>
<clipPath id="clip0_137_458">
<rect width="8.57143" height="8.57143" fill="white" transform="translate(3 3)"/>
</clipPath>
</defs>
</svg>
