<svg width="28" height="28" viewBox="0 -4 28 28" fill="none" xmlns="http://www.w3.org/2000/svg">
<g filter="url(#filter0_d_134_322)">
<path d="M17.5817 6.90667L18.7517 8.09417L13.9242 12.85C13.6017 13.1725 13.1775 13.3333 12.7517 13.3333C12.3258 13.3333 11.8975 13.1708 11.5717 12.8458L9.25333 10.5992L10.4142 9.40167L12.7417 11.6575L17.5817 6.90667ZM24 10C24 15.5142 19.5142 20 14 20C8.48583 20 4 15.5142 4 10C4 4.48583 8.48583 0 14 0C19.5142 0 24 4.48583 24 10ZM22.3333 10C22.3333 5.405 18.595 1.66667 14 1.66667C9.405 1.66667 5.66667 5.405 5.66667 10C5.66667 14.595 9.405 18.3333 14 18.3333C18.595 18.3333 22.3333 14.595 22.3333 10Z" fill="#19FFFF"/>
</g>
<defs>
<filter id="filter0_d_134_322" x="0" y="0" width="28" height="28" filterUnits="userSpaceOnUse" color-interpolation-filters="sRGB">
<feFlood flood-opacity="0" result="BackgroundImageFix"/>
<feColorMatrix in="SourceAlpha" type="matrix" values="0 0 0 0 0 0 0 0 0 0 0 0 0 0 0 0 0 0 127 0" result="hardAlpha"/>
<feOffset dy="4"/>
<feGaussianBlur stdDeviation="2"/>
<feComposite in2="hardAlpha" operator="out"/>
<feColorMatrix type="matrix" values="0 0 0 0 0 0 0 0 0 0 0 0 0 0 0 0 0 0 0.25 0"/>
<feBlend mode="normal" in2="BackgroundImageFix" result="effect1_dropShadow_134_322"/>
<feBlend mode="normal" in="SourceGraphic" in2="effect1_dropShadow_134_322" result="shape"/>
</filter>
</defs>
</svg>
