<svg width="138" height="138" viewBox="0 0 138 138" fill="none" xmlns="http://www.w3.org/2000/svg">
<g filter="url(#filter0_f_146_1194)">
<rect x="17" y="17" width="104" height="104" stroke="#19FFFF" stroke-width="4"/>
</g>
<rect x="22.5" y="22.5" width="93" height="93" stroke="#19FFFF" stroke-width="7"/>
<g filter="url(#filter1_f_146_1194)">
<rect x="20" y="20" width="98" height="98" stroke="url(#paint0_linear_146_1194)" stroke-width="2"/>
</g>
<rect x="19" y="19" width="100" height="100" fill="url(#paint1_linear_146_1194)" fill-opacity="0.4"/>
<path d="M91.5 41.5H46.5C42.365 41.5 39 44.865 39 49V96.5H99V49C99 44.865 95.635 41.5 91.5 41.5ZM94 91.5H44V49C44 47.6225 45.1225 46.5 46.5 46.5H91.5C92.8775 46.5 94 47.6225 94 49V91.5ZM64 54H86.5V59H64V54ZM59 56.5C59 58.57 57.32 60.25 55.25 60.25C53.18 60.25 51.5 58.57 51.5 56.5C51.5 54.43 53.18 52.75 55.25 52.75C57.32 52.75 59 54.43 59 56.5ZM64 66.5H86.5V71.5H64V66.5ZM59 69C59 71.07 57.32 72.75 55.25 72.75C53.18 72.75 51.5 71.07 51.5 69C51.5 66.93 53.18 65.25 55.25 65.25C57.32 65.25 59 66.93 59 69ZM64 79H86.5V84H64V79ZM59 81.5C59 83.57 57.32 85.25 55.25 85.25C53.18 85.25 51.5 83.57 51.5 81.5C51.5 79.43 53.18 77.75 55.25 77.75C57.32 77.75 59 79.43 59 81.5Z" fill="#19FFFF"/>
<defs>
<filter id="filter0_f_146_1194" x="0" y="0" width="138" height="138" filterUnits="userSpaceOnUse" color-interpolation-filters="sRGB">
<feFlood flood-opacity="0" result="BackgroundImageFix"/>
<feBlend mode="normal" in="SourceGraphic" in2="BackgroundImageFix" result="shape"/>
<feGaussianBlur stdDeviation="7.5" result="effect1_foregroundBlur_146_1194"/>
</filter>
<filter id="filter1_f_146_1194" x="18" y="18" width="102" height="102" filterUnits="userSpaceOnUse" color-interpolation-filters="sRGB">
<feFlood flood-opacity="0" result="BackgroundImageFix"/>
<feBlend mode="normal" in="SourceGraphic" in2="BackgroundImageFix" result="shape"/>
<feGaussianBlur stdDeviation="0.5" result="effect1_foregroundBlur_146_1194"/>
</filter>
<linearGradient id="paint1_linear_146_1194" x1="69" y1="19" x2="69" y2="119" gradientUnits="userSpaceOnUse">
<stop stop-color="#19FFFF"/>
<stop offset="1" stop-color="#19FFFF" stop-opacity="0"/>
</linearGradient>
</defs>
</svg>
