<svg width="30" height="30" viewBox="0 0 30 30" fill="none" xmlns="http://www.w3.org/2000/svg">
<path d="M14.9997 0C10.9258 0 10.4147 0.0172158 8.81447 0.088286C7.21429 0.159356 6.12748 0.414943 5.17312 0.785745C4.17664 1.17125 3.27165 1.76064 2.51615 2.51614C1.76064 3.27165 1.17125 4.17664 0.785745 5.17312C0.414944 6.12748 0.161122 7.21782 0.088286 8.81447C0.0154501 10.4111 0 10.9258 0 14.9997C0 19.0737 0.0172158 19.5849 0.088286 21.1851C0.159356 22.7853 0.414944 23.8726 0.785745 24.8269C1.17125 25.8233 1.76064 26.7283 2.51615 27.4838C3.27165 28.2394 4.17664 28.8288 5.17312 29.2143C6.12748 29.5851 7.21782 29.8385 8.81447 29.9118C10.4111 29.985 10.9258 30 14.9997 30C19.0737 30 19.5849 29.9828 21.1851 29.9118C22.7853 29.8407 23.8726 29.5851 24.8269 29.2143C25.823 28.8292 26.7277 28.2405 27.4832 27.4856C28.2388 26.7308 28.8283 25.8266 29.2143 24.8309C29.5851 23.8765 29.8389 22.7862 29.9118 21.1891C29.9845 19.5919 30 19.0782 30 15.0038C30 10.9293 29.9828 10.4186 29.9118 8.81845C29.8407 7.21827 29.5851 6.13146 29.2143 5.17709C28.8293 4.18041 28.2403 3.27514 27.4852 2.51925C26.73 1.76335 25.8253 1.17352 24.8291 0.787511C23.8748 0.416709 22.7844 0.162887 21.1873 0.0900514C19.5903 0.0172154 19.0742 0 14.9997 0ZM14.9997 2.70287C19.0058 2.70287 19.4803 2.71832 21.062 2.79116C22.5248 2.85782 23.3189 3.10237 23.8478 3.30763C24.548 3.57999 25.0476 3.90489 25.5725 4.42975C26.0973 4.95461 26.4227 5.4521 26.6946 6.15397C26.9003 6.68369 27.1444 7.47826 27.2115 8.93984C27.2835 10.5215 27.2998 10.9961 27.2998 15.0015C27.2998 19.0071 27.2843 19.4821 27.2115 21.0638C27.1444 22.5266 26.9003 23.3207 26.6946 23.8491C26.4227 24.5496 26.0978 25.0494 25.5725 25.5742C25.0472 26.0991 24.548 26.4245 23.8478 26.6963C23.3181 26.9021 22.5235 27.1461 21.062 27.2133C19.4803 27.2853 19.0058 27.3016 14.9997 27.3016C10.9938 27.3016 10.5197 27.2853 8.93763 27.2146C7.47473 27.1479 6.6806 26.9056 6.15176 26.6981C5.45166 26.4262 4.95196 26.1009 4.4271 25.576C3.90224 25.0511 3.57691 24.5515 3.30454 23.8513C3.09928 23.3216 2.85473 22.5271 2.78807 21.0655C2.71612 19.4833 2.69978 19.0093 2.69978 15.0033C2.69978 10.9973 2.71524 10.5232 2.78807 8.9416C2.85473 7.47871 3.09928 6.68457 3.30454 6.15574C3.57691 5.45563 3.9018 4.95593 4.42665 4.43108C4.95152 3.90621 5.45033 3.57911 6.15221 3.30675C6.68193 3.10149 7.4765 2.85693 8.93807 2.79028C10.5197 2.71832 10.9942 2.70287 14.9997 2.70287Z" fill="white"/>
<path d="M14.9996 20.0025C14.0105 20.0025 13.0436 19.7091 12.2213 19.1596C11.3989 18.6101 10.7578 17.8291 10.3794 16.9153C10.0008 16.0015 9.90181 14.9959 10.0948 14.0259C10.2877 13.0557 10.764 12.1647 11.4635 11.4653C12.1628 10.7659 13.0539 10.2896 14.024 10.0966C14.9941 9.90367 15.9997 10.0027 16.9134 10.3812C17.8272 10.7597 18.6082 11.4007 19.1578 12.2231C19.7073 13.0456 20.0006 14.0124 20.0006 15.0015C20.0006 16.3278 19.4737 17.5998 18.5359 18.5377C17.598 19.4756 16.326 20.0025 14.9996 20.0025ZM14.9996 7.29811C13.476 7.29811 11.9864 7.74994 10.7195 8.59647C9.45268 9.44299 8.46525 10.6462 7.88219 12.0539C7.29912 13.4616 7.14658 15.0107 7.44387 16.5051C7.74116 17.9994 8.47492 19.3722 9.55237 20.4496C10.6298 21.5269 12.0026 22.2606 13.497 22.5578C14.9913 22.855 16.5404 22.7024 17.9481 22.1193C19.3557 21.536 20.5589 20.5486 21.4054 19.2816C22.2518 18.0147 22.7035 16.5252 22.7034 15.0015C22.7034 13.9898 22.5042 12.9881 22.117 12.0535C21.7299 11.1188 21.1624 10.2696 20.447 9.55423C19.7316 8.83889 18.8824 8.27148 17.9478 7.88437C17.0131 7.49727 16.0113 7.29805 14.9996 7.29811ZM24.8082 6.99352C24.8083 7.34966 24.7028 7.69784 24.505 7.994C24.3072 8.29017 24.026 8.52102 23.697 8.65737C23.368 8.79372 23.0059 8.82944 22.6566 8.76002C22.3073 8.69059 21.9865 8.51913 21.7346 8.26733C21.4827 8.01553 21.3112 7.6947 21.2416 7.3454C21.1721 6.99611 21.2078 6.63405 21.3441 6.30501C21.4803 5.97596 21.7111 5.69472 22.0073 5.49686C22.3034 5.29898 22.6515 5.19337 23.0076 5.19337C23.244 5.19331 23.4782 5.23983 23.6966 5.33027C23.9151 5.42072 24.1136 5.5533 24.2808 5.72046C24.448 5.88763 24.5806 6.0861 24.6712 6.30453C24.7617 6.52296 24.8082 6.75709 24.8082 6.99352Z" fill="white"/>
</svg>
