<svg width="30" height="25" viewBox="0 0 30 25" fill="none" xmlns="http://www.w3.org/2000/svg">
<path d="M15.0336 14.209C13.4716 15.8197 11.6971 16.8065 14.4273 18.5941C16.808 20.1694 18.1576 21.0898 20.6046 22.7315C22.1489 23.7493 23.3303 24.9484 24.9765 24.8201C25.7154 24.736 26.4721 24.0457 26.8659 21.9793C27.7863 17.0985 29.5784 6.48747 29.9855 2.12004C30.012 1.77488 30.0032 1.42974 29.9501 1.0846C29.9147 0.792545 29.7731 0.527042 29.5563 0.327922C29.2377 0.106674 28.8571 -0.00837441 28.4722 0.000474846C27.4368 0.0314503 25.826 0.575723 18.1576 3.77939C15.476 4.91661 10.1085 7.23529 2.05955 10.7266C0.763037 11.2664 0.00637119 11.762 0.00637119 12.2709C-0.108678 13.2399 1.35156 13.5364 2.99765 14.094C4.39151 14.5851 5.83405 14.9259 7.30314 15.1117C8.39166 15.0674 9.44036 14.6737 10.2944 13.9966C17.8169 8.92117 21.6931 6.29277 21.9409 6.29277C22.1179 6.191 22.3392 6.191 22.5161 6.29277C22.6356 6.4211 22.6932 6.59368 22.6622 6.77067C22.5073 7.34592 15.4451 13.7842 15.0336 14.209Z" fill="white"/>
</svg>
