<svg width="55" height="55" viewBox="0 0 55 55" fill="none" xmlns="http://www.w3.org/2000/svg">
<g filter="url(#filter0_f_122_148)">
<path d="M27.5 45C37.165 45 45 37.165 45 27.5C45 17.835 37.165 10 27.5 10C17.835 10 10 17.835 10 27.5C10 37.165 17.835 45 27.5 45Z" fill="#3BADFF"/>
</g>
<path d="M27.5 45C37.165 45 45 37.165 45 27.5C45 17.835 37.165 10 27.5 10C17.835 10 10 17.835 10 27.5C10 37.165 17.835 45 27.5 45Z" fill="#3BADFF"/>
<path d="M35.71 19.2477C34.6315 18.1634 33.3489 17.3035 31.9361 16.7174C30.5234 16.1314 29.0086 15.8309 27.4792 15.8333C25.1758 15.8333 22.9242 16.5163 21.0091 17.7957C19.094 19.0751 17.6013 20.8936 16.7199 23.0213C15.8384 25.1489 15.6078 27.4901 16.0571 29.7488C16.5065 32.0074 17.6157 34.0822 19.2443 35.7106C20.3233 36.8016 21.6073 37.6685 23.0225 38.2616C24.4377 38.8547 25.9562 39.1623 27.4908 39.1666C29.0253 39.1709 30.5455 38.8719 31.964 38.2868C33.3826 37.7016 34.6714 36.8419 35.7565 35.757C36.8416 34.6722 37.7014 33.3835 38.2867 31.9652C38.8719 30.5469 39.171 29.027 39.1667 27.4927C39.1623 25.9585 38.8547 24.4402 38.2615 23.0252C37.6683 21.6102 36.8012 20.3265 35.71 19.2477ZM35.4473 27.4772C35.4425 31.8655 31.8678 35.4396 27.4792 35.444C23.0905 35.4484 19.511 31.8699 19.511 27.4772C19.511 23.0845 23.0857 19.5103 27.4792 19.5103C31.8726 19.5103 35.4473 23.0845 35.4473 27.4772Z" fill="white"/>
<defs>
<filter id="filter0_f_122_148" x="0" y="0" width="55" height="55" filterUnits="userSpaceOnUse" color-interpolation-filters="sRGB">
<feFlood flood-opacity="0" result="BackgroundImageFix"/>
<feBlend mode="normal" in="SourceGraphic" in2="BackgroundImageFix" result="shape"/>
<feGaussianBlur stdDeviation="5" result="effect1_foregroundBlur_122_148"/>
</filter>
</defs>
</svg>
