<svg width="65" height="65" viewBox="0 0 65 65" fill="none" xmlns="http://www.w3.org/2000/svg">
<g filter="url(#filter0_f_107_721)">
<path d="M32.5 50C42.165 50 50 42.165 50 32.5C50 22.835 42.165 15 32.5 15C22.835 15 15 22.835 15 32.5C15 42.165 22.835 50 32.5 50Z" fill="#F0BB00"/>
</g>
<path d="M32.5 50C42.165 50 50 42.165 50 32.5C50 22.835 42.165 15 32.5 15C22.835 15 15 22.835 15 32.5C15 42.165 22.835 50 32.5 50Z" fill="#F0BB00"/>
<g clip-path="url(#clip0_107_721)">
<path d="M40.5937 23.3685C40.1541 22.9338 39.6313 22.589 39.0554 22.3541C38.4796 22.1192 37.8622 21.9988 37.2388 22C36.1383 21.9976 35.0709 22.3701 34.218 23.0542C33.3651 23.7383 32.7793 24.6918 32.5601 25.7526C32.341 26.8134 32.502 27.9162 33.0158 28.8734C33.5297 29.8307 34.3646 30.5834 35.3788 31.0038C36.3929 31.4241 37.5237 31.486 38.5791 31.1791C39.6344 30.8721 40.5492 30.2152 41.1679 29.32C41.7866 28.4248 42.0711 27.3465 41.9731 26.2683C41.875 25.1901 41.4005 24.1785 40.6301 23.4055L40.5937 23.3685ZM40.4866 26.6686C40.4863 27.3001 40.2956 27.9173 39.9387 28.4423C39.5819 28.9672 39.0748 29.3763 38.4816 29.6178C37.8884 29.8593 37.2357 29.9224 36.606 29.799C35.9764 29.6757 35.3981 29.3716 34.9441 28.925C34.4902 28.4785 34.181 27.9095 34.0558 27.2902C33.9305 26.6708 33.9947 26.0288 34.2403 25.4454C34.4859 24.8619 34.9018 24.3631 35.4355 24.0122C35.9692 23.6612 36.5968 23.4737 37.2388 23.4735C38.099 23.4758 38.9232 23.813 39.5315 24.4113C40.1397 25.0096 40.4823 25.8205 40.4846 26.6666L40.4866 26.6686Z" fill="white"/>
<path d="M42 33.6719L40.9596 32.6489L37.2469 36.3012L31.5071 30.3277L27.7936 26.6758L31.5071 23.0234L30.4666 22L26.7535 25.6527L23.0404 22L22 23.0234L25.7135 26.6758L22 30.3281L23.0404 31.3515L26.7535 27.6988L30.4662 31.3511L36.208 37.323L32.4933 40.9766L33.5334 41.9992L37.2469 38.3465L40.9596 41.9992L42 40.9758L38.2869 37.3234L42 33.6719Z" fill="white"/>
<path d="M23.3707 34.0544C22.6055 34.825 22.1349 35.8322 22.0388 36.9053C21.9427 37.9783 22.227 39.051 22.8435 39.9413C23.46 40.8316 24.3707 41.4846 25.421 41.7896C26.4713 42.0946 27.5965 42.0327 28.6057 41.6144C29.6149 41.1962 30.4459 40.4473 30.9576 39.495C31.4694 38.5427 31.6303 37.4455 31.4132 36.3897C31.1961 35.3338 30.6143 34.3845 29.7665 33.7026C28.9187 33.0208 27.8572 32.6484 26.7621 32.6489C26.1387 32.6477 25.5213 32.768 24.9455 33.0029C24.3696 33.2377 23.8468 33.5824 23.4071 34.017L23.3707 34.0544ZM26.7621 34.1224C27.4041 34.1225 28.0317 34.3098 28.5655 34.6607C29.0993 35.0117 29.5153 35.5104 29.7609 36.0939C30.0066 36.6774 30.0708 37.3194 29.9454 37.9388C29.8201 38.5582 29.5108 39.1271 29.0568 39.5736C28.6027 40.0201 28.0243 40.3242 27.3946 40.4473C26.7648 40.5705 26.1121 40.5071 25.519 40.2654C24.9259 40.0236 24.4189 39.6143 24.0623 39.0892C23.7057 38.564 23.5153 37.9466 23.5154 37.3151C23.5166 36.4685 23.8591 35.657 24.4677 35.0585C25.0763 34.46 25.9014 34.1233 26.7621 34.1224Z" fill="white"/>
</g>
<defs>
<filter id="filter0_f_107_721" x="0" y="0" width="65" height="65" filterUnits="userSpaceOnUse" color-interpolation-filters="sRGB">
<feFlood flood-opacity="0" result="BackgroundImageFix"/>
<feBlend mode="normal" in="SourceGraphic" in2="BackgroundImageFix" result="shape"/>
<feGaussianBlur stdDeviation="7.5" result="effect1_foregroundBlur_107_721"/>
</filter>
<clipPath id="clip0_107_721">
<rect width="20" height="20" fill="white" transform="translate(22 22)"/>
</clipPath>
</defs>
</svg>
