<?xml version="1.0" encoding="utf-8"?>
<!-- Generator: Adobe Illustrator 26.1.0, SVG Export Plug-In . SVG Version: 6.00 Build 0)  -->
<svg version="1.1" id="Слой_1" xmlns="http://www.w3.org/2000/svg" xmlns:xlink="http://www.w3.org/1999/xlink" x="0px" y="0px"
     viewBox="0 0 398.8 398.8" style="enable-background:new 0 0 398.8 398.8;" xml:space="preserve">
<style type="text/css">
	.st0{fill:#F9B500;}
	.st1{fill:#FFDE56;}
	.st2{fill:#FFF1BB;}
	.st3{fill:#DF9800;}
</style>
    <circle class="st0" cx="199.4" cy="199.4" r="166.7"/>
    <path class="st1" d="M199.4,398.8C89.4,398.8,0,309.3,0,199.4S89.4,0,199.4,0s199.4,89.4,199.4,199.4S309.3,398.8,199.4,398.8z
	 M199.4,32.7c-91.9,0-166.7,74.8-166.7,166.7s74.8,166.7,166.7,166.7s166.7-74.8,166.7-166.7S291.3,32.7,199.4,32.7z"/>
    <path class="st2" d="M12.2,199.4C12.2,91.5,98.3,3.3,205.5,0.1c-2-0.1-4-0.1-6.1-0.1C89.4,0,0,89.4,0,199.4s89.4,199.4,199.4,199.4
	c2,0,4.1,0,6.1-0.1C98.3,395.5,12.2,307.3,12.2,199.4z"/>
    <path class="st3" d="M199.4,32.7c-1.8,0-3.6,0-5.3,0.1c89.5,2.8,161.4,76.5,161.4,166.6S283.5,363.2,194.1,366
	c1.8,0.1,3.5,0.1,5.3,0.1c91.9,0,166.7-74.8,166.7-166.7S291.3,32.7,199.4,32.7z"/>
    <g>
	<g>
		<path class="st3" d="M216.1,184.9c10.2,10.2,23.7,15.8,38.1,15.9c0,0,0.1,0,0.1,0c29.7,0,53.9-24.1,53.9-53.8
			c0-14.2-5.4-27.7-15.4-37.8l-0.1-0.1l-0.4-0.4c-10-10-23.7-15.7-37.9-15.7h-0.2c-29.7,0-53.9,24.1-53.9,53.8
			C200.3,161.1,205.9,174.7,216.1,184.9z M254.4,120l0-6L254.4,120c14.7,0,26.7,11.9,26.7,26.7c0,14.7-12,26.7-26.7,26.7
			c-14.7,0-26.7-12-26.7-26.7C227.7,132,239.7,120,254.4,120z"/>
        <polygon class="st3" points="310.7,218.3 291.8,199.3 254.6,236.5 201.1,180 167.9,146.7 205.2,109.4 186.3,90.4 148.9,127.8
			111.6,90.4 92.6,109.4 130,146.7 92.6,184.1 111.6,203 148.9,165.7 182,198.7 235.6,255.5 198.2,292.9 217.1,311.9 254.4,274.5
			291.8,311.9 310.7,292.9 273.4,255.6 		"/>
        <path class="st3" d="M186.5,217.1c-10.1-9.9-23.4-15.3-37.5-15.3h-0.1c-14.1,0-27.9,5.7-37.9,15.8l-0.4,0.4
			c-10,10.3-15.4,23.8-15.3,38.2c0.2,14.3,5.9,27.8,16.2,37.8c10.1,9.9,23.4,15.3,37.5,15.3c0,0,0,0,0,0c14.6,0,28.2-5.7,38.4-16.2
			C208.1,271.8,207.7,237.8,186.5,217.1z M149,282.2c-14.7,0-26.6-12-26.6-26.6c0-14.7,12-26.7,26.6-26.7s26.6,12,26.6,26.7
			C175.7,270.2,163.7,282.2,149,282.2z"/>
	</g>
        <g>
		<path class="st1" d="M211.5,181.4c10.2,10.2,23.7,15.8,38.1,15.9c0,0,0.1,0,0.1,0c29.7,0,53.9-24.1,53.9-53.8
			c0-14.2-5.4-27.7-15.4-37.8l-0.1-0.1l-0.4-0.4c-10-10-23.7-15.7-37.9-15.7h-0.2c-29.7,0-53.9,24.1-53.9,53.8
			C195.8,157.6,201.4,171.2,211.5,181.4z M249.8,116.5l0-6L249.8,116.5c14.7,0,26.7,11.9,26.7,26.7c0,14.7-12,26.7-26.7,26.7
			c-14.7,0-26.7-12-26.7-26.7C223.1,128.4,235.1,116.5,249.8,116.5z"/>
            <polygon class="st1" points="306.2,214.7 287.2,195.8 250,233 196.5,176.4 163.3,143.2 200.6,105.9 181.7,86.9 144.3,124.3
			107,86.9 88,105.9 125.4,143.2 88,180.5 107,199.5 144.3,162.2 177.4,195.2 231.1,252 193.6,289.4 212.5,308.4 249.9,271
			287.2,308.4 306.2,289.4 268.8,252.1 		"/>
            <path class="st1" d="M182,213.6c-10.1-9.9-23.4-15.3-37.5-15.3h-0.1c-14.1,0-27.9,5.7-37.9,15.8l-0.4,0.4
			c-10,10.3-15.4,23.8-15.3,38.2c0.2,14.3,5.9,27.8,16.2,37.8c10.1,9.9,23.4,15.3,37.5,15.3c0,0,0,0,0,0c14.6,0,28.2-5.7,38.4-16.2
			C203.6,268.3,203.2,234.3,182,213.6z M144.4,278.6c-14.7,0-26.6-12-26.6-26.6c0-14.7,12-26.7,26.6-26.7s26.6,12,26.6,26.7
			C171.1,266.7,159.1,278.6,144.4,278.6z"/>
	</g>
</g>
</svg>
