<svg width="430" height="420" viewBox="0 0 430 420" fill="none" xmlns="http://www.w3.org/2000/svg">
<g filter="url(#filter0_f_99_440)">
<path d="M215.286 44L40 136.686L48.3005 280.69L58.8122 286.504L56.5038 246.409L125.362 290.209L126.494 324.781L136.855 330.746L135.744 296.816L210.033 344.073L210.189 373.877L214.558 376.488L220.345 372.998L220.194 344.03L294.941 296.412L294.197 329.462L304.498 323.53L305.253 289.848L374.602 245.665L372.736 284.886L383.188 279.099L389.817 139.83L389.849 139.755V139.07L390 135.909L215.286 44ZM305.528 277.637L307.465 191.181L379.246 148.136L375.195 233.255L305.528 277.637ZM374.391 139.188L302.346 182.39L225.328 139.269L297.481 98.7215L374.391 139.188ZM219.644 243.82L297.147 197.345L295.2 284.179L220.14 332.04L219.644 243.82ZM292.315 188.414L214.558 235.04L137.243 188.775L214.962 145.089L292.315 188.414ZM143.516 93.4468L215.313 55.488L286.781 93.08L214.957 133.45L143.516 93.4468ZM122.131 191.575L124.957 277.912L55.7811 233.907L50.8839 148.94L122.131 191.575ZM204.575 139.258L127.195 182.762L55.6409 139.927L132.821 99.1045L204.575 139.258ZM132.502 197.782L209.499 243.853L209.968 332.008L135.345 284.546L132.502 197.782Z" fill="url(#paint0_linear_99_440)"/>
<path d="M215.984 42.6725L215.284 42.3042L214.585 42.674L39.2988 135.36L38.447 135.81L38.5025 136.772L46.8029 280.776L46.8506 281.602L47.5745 282.002L58.0862 287.817L60.4661 289.133L60.3097 286.418L58.1697 249.247L123.888 291.05L124.995 324.83L125.022 325.664L125.746 326.081L136.106 332.046L138.442 333.391L138.354 330.697L137.336 299.607L208.537 344.9L208.689 373.885L208.694 374.731L209.42 375.165L213.788 377.775L214.561 378.237L215.332 377.772L221.119 374.283L221.849 373.843L221.845 372.99L221.698 344.85L293.378 299.186L292.697 329.429L292.637 332.092L294.945 330.762L305.247 324.83L305.979 324.408L305.998 323.563L306.735 290.682L372.966 248.486L371.237 284.815L371.11 287.501L373.462 286.198L383.915 280.411L384.647 280.006L384.686 279.17L391.302 140.172L391.349 140.062V139.755V139.105L391.498 135.981L391.544 135.026L390.698 134.582L215.984 42.6725ZM373.734 232.407L307.091 274.863L308.946 192.042L377.614 150.863L373.734 232.407ZM297.505 100.429L371.332 139.274L302.321 180.656L228.395 139.267L297.505 100.429ZM221.625 329.315L221.148 244.667L295.586 200.03L293.718 283.345L221.625 329.315ZM214.964 146.809L289.324 188.458L214.557 233.291L140.232 188.816L214.964 146.809ZM215.315 57.1838L283.642 93.1237L214.955 131.73L146.653 93.4846L215.315 57.1838ZM52.5444 151.681L120.658 192.441L123.365 275.122L57.2344 233.054L52.5444 151.681ZM132.8 100.812L201.508 139.261L127.219 181.028L58.6963 140.008L132.8 100.812ZM136.818 283.705L134.092 200.481L208.003 244.706L208.453 329.267L136.818 283.705Z" stroke="url(#paint1_linear_99_440)" stroke-width="3"/>
</g>
<path d="M215.519 43.5575L215.285 43.4347L215.052 43.558L39.7663 136.244L39.4823 136.394L39.5008 136.715L47.8013 280.719L47.8172 280.994L48.0585 281.127L58.5702 286.941L59.3635 287.38L59.3114 286.475L57.0591 247.355L124.87 290.489L125.994 324.797L126.004 325.075L126.245 325.214L136.605 331.179L137.384 331.628L137.355 330.73L136.275 297.746L209.534 344.349L209.689 373.88L209.691 374.162L209.933 374.306L214.301 376.917L214.559 377.071L214.816 376.916L220.603 373.426L220.846 373.28L220.845 372.995L220.695 344.303L294.42 297.336L293.697 329.451L293.677 330.339L294.446 329.896L304.748 323.963L304.992 323.822L304.998 323.541L305.747 290.126L374.057 246.605L372.236 284.862L372.194 285.758L372.978 285.323L383.43 279.536L383.674 279.401L383.688 279.123L390.312 139.944L390.349 139.857V139.755V139.081L390.499 135.933L390.515 135.615L390.233 135.467L215.519 43.5575ZM374.708 232.972L306.049 276.713L307.958 191.468L378.702 149.045L374.708 232.972ZM297.489 99.2907L373.372 139.217L302.338 181.812L226.35 139.268L297.489 99.2907ZM220.635 331.132L220.145 244.103L296.627 198.24L294.706 283.901L220.635 331.132ZM214.963 145.662L291.318 188.429L214.557 234.457L138.24 188.789L214.963 145.662ZM215.313 56.0532L285.735 93.0946L214.956 132.876L144.562 93.4594L215.313 56.0532ZM51.4374 149.854L121.64 191.863L124.426 276.982L56.2656 233.623L51.4374 149.854ZM132.814 99.6737L203.552 139.259L127.203 182.184L56.6594 139.954L132.814 99.6737ZM135.836 284.266L133.032 198.682L209 244.137L209.463 331.094L135.836 284.266Z" fill="url(#paint2_linear_99_440)" stroke="url(#paint3_linear_99_440)"/>
<g filter="url(#filter1_f_99_440)">
<path d="M373.278 284.014L375.101 245.689L375.147 244.725L374.333 245.243L304.985 289.426L304.759 289.57L304.753 289.837L304.005 323.237L294.717 328.586L295.441 296.423L295.462 295.487L294.673 295.99L219.925 343.608L219.692 343.757L219.694 344.033L219.843 372.717L214.557 375.904L210.688 373.593L210.533 344.071L210.531 343.798L210.301 343.651L136.012 296.394L135.213 295.886L135.244 296.832L136.326 329.864L126.985 324.486L125.861 290.193L125.853 289.929L125.63 289.787L56.7722 245.987L55.9486 245.464L56.0047 246.438L58.2609 285.628L48.7838 280.386L40.5177 136.978L215.286 44.5653L389.485 136.203L389.35 139.046L389.349 139.058V139.07V139.652L389.321 139.716L389.317 139.806L382.702 278.796L373.278 284.014ZM305.029 277.626L305.008 278.562L305.797 278.059L375.464 233.676L375.682 233.537L375.695 233.279L379.745 148.16L379.789 147.227L378.988 147.707L307.207 190.752L306.971 190.894L306.965 191.17L305.029 277.626ZM374.649 139.617L375.411 139.16L374.624 138.746L297.714 98.2791L297.474 98.1524L297.236 98.2857L225.083 138.833L224.306 139.27L225.084 139.705L302.102 182.826L302.355 182.967L302.603 182.818L374.649 139.617ZM219.387 243.392L219.142 243.538L219.144 243.823L219.64 332.043L219.645 332.949L220.409 332.462L295.469 284.601L295.694 284.457L295.7 284.191L297.647 197.357L297.667 196.451L296.89 196.917L219.387 243.392ZM292.572 188.843L293.311 188.399L292.559 187.978L215.207 144.652L214.962 144.515L214.717 144.653L136.998 188.339L136.247 188.762L136.986 189.204L214.301 235.469L214.558 235.623L214.815 235.469L292.572 188.843ZM143.282 93.0048L142.47 93.4342L143.271 93.8831L214.713 133.886L214.957 134.023L215.202 133.886L287.026 93.5159L287.827 93.0655L287.014 92.6375L215.546 55.0454L215.312 54.9227L215.079 55.0459L143.282 93.0048ZM122.631 191.558L122.622 191.286L122.388 191.145L51.1406 148.511L50.3304 148.026L50.3847 148.968L55.2819 233.936L55.2967 234.192L55.5128 234.329L124.689 278.334L125.488 278.842L125.457 277.896L122.631 191.558ZM204.82 139.694L205.597 139.257L204.819 138.822L133.065 98.6682L132.827 98.5353L132.587 98.6625L55.4071 139.485L54.6224 139.9L55.3841 140.356L126.938 183.191L127.187 183.34L127.44 183.198L204.82 139.694ZM132.759 197.353L131.973 196.883L132.003 197.799L134.845 284.562L134.854 284.826L135.076 284.968L209.7 332.43L210.473 332.922L210.468 332.005L209.999 243.85L209.997 243.568L209.755 243.424L132.759 197.353Z" stroke="url(#paint4_linear_99_440)"/>
</g>
<g filter="url(#filter2_f_99_440)">
<path d="M250 147.66L242.34 140L214.999 167.342L187.66 140L180 147.66L207.342 174.999L180 202.34L187.66 210L214.999 182.657L242.34 210L250 202.34L222.657 174.999L250 147.66Z" fill="#FF60EF"/>
<path d="M250.707 148.367L251.414 147.66L250.707 146.953L243.047 139.293L242.34 138.586L241.633 139.293L214.999 165.927L188.367 139.293L187.66 138.586L186.953 139.293L179.293 146.953L178.586 147.66L179.293 148.367L205.927 174.999L179.293 201.633L178.586 202.34L179.293 203.047L186.953 210.707L187.66 211.414L188.367 210.707L214.999 184.071L241.633 210.707L242.34 211.414L243.047 210.707L250.707 203.047L251.414 202.34L250.707 201.633L224.071 174.999L250.707 148.367Z" stroke="#FF60EF" stroke-width="2"/>
</g>
<path d="M250.354 148.014L250.707 147.66L250.354 147.307L242.693 139.646L242.34 139.293L241.986 139.646L214.999 166.635L188.014 139.646L187.66 139.293L187.307 139.646L179.646 147.307L179.293 147.66L179.646 148.014L206.635 174.999L179.646 201.986L179.293 202.34L179.646 202.693L187.307 210.354L187.66 210.707L188.014 210.354L214.999 183.364L241.986 210.354L242.34 210.707L242.693 210.354L250.354 202.693L250.707 202.34L250.354 201.986L223.364 174.999L250.354 148.014Z" fill="#FF60EF" stroke="#FF60EF"/>
<g filter="url(#filter3_f_99_440)">
<path d="M222.304 175.353L249.293 202.34L242.34 209.293L215.353 182.304L214.999 181.95L214.646 182.304L187.66 209.293L180.707 202.34L207.695 175.353L208.049 174.999L207.695 174.646L180.707 147.66L187.66 140.707L214.646 167.695L214.999 168.049L215.353 167.695L242.34 140.707L249.293 147.66L222.304 174.646L221.95 174.999L222.304 175.353Z" stroke="url(#paint5_linear_99_440)"/>
</g>
<g filter="url(#filter4_f_99_440)">
<path d="M250 46.6603L242.34 39L214.999 66.3416L187.66 39L180 46.6603L207.342 73.9994L180 101.34L187.66 109L214.999 81.6571L242.34 109L250 101.34L222.657 73.9994L250 46.6603Z" fill="#FF60EF"/>
<path d="M250.707 47.3675L251.414 46.6603L250.707 45.9532L243.047 38.2929L242.34 37.5858L241.633 38.2929L214.999 64.9274L188.367 38.2929L187.66 37.5858L186.953 38.2929L179.293 45.9532L178.586 46.6603L179.293 47.3674L205.927 73.9994L179.293 100.633L178.586 101.34L179.293 102.047L186.953 109.707L187.66 110.414L188.367 109.707L214.999 83.0714L241.633 109.707L242.34 110.414L243.047 109.707L250.707 102.047L251.414 101.34L250.707 100.633L224.071 73.9994L250.707 47.3675Z" stroke="#FF60EF" stroke-width="2"/>
</g>
<path d="M250.354 47.0139L250.707 46.6603L250.354 46.3067L242.693 38.6464L242.34 38.2929L241.986 38.6465L214.999 65.6345L188.014 38.6465L187.66 38.2929L187.307 38.6464L179.646 46.3067L179.293 46.6603L179.646 47.0139L206.635 73.9994L179.646 100.986L179.293 101.34L179.646 101.693L187.307 109.354L187.66 109.707L188.014 109.354L214.999 82.3642L241.986 109.354L242.34 109.707L242.693 109.354L250.354 101.693L250.707 101.34L250.354 100.986L223.364 73.9994L250.354 47.0139Z" fill="#FF60EF" stroke="#FF60EF"/>
<g filter="url(#filter5_f_99_440)">
<path d="M222.304 74.3529L249.293 101.34L242.34 108.293L215.353 81.3035L214.999 80.9499L214.646 81.3035L187.66 108.293L180.707 101.34L207.695 74.3529L208.049 73.9993L207.695 73.6458L180.707 46.6603L187.66 39.7071L214.646 66.6952L214.999 67.0488L215.353 66.6952L242.34 39.7071L249.293 46.6603L222.304 73.6458L221.95 73.9993L222.304 74.3529Z" stroke="url(#paint6_linear_99_440)"/>
</g>
<g filter="url(#filter6_f_99_440)">
<path d="M150.63 99.2449C147.394 95.9915 143.546 93.4112 139.308 91.6528C135.07 89.8944 130.526 88.9928 125.937 89C119.027 89.0001 112.273 91.0491 106.527 94.8881C100.782 98.7271 96.3038 104.184 93.6595 110.568C91.0151 116.951 90.3233 123.976 91.6713 130.753C93.0194 137.531 96.3468 143.756 101.233 148.642C104.47 151.915 108.322 154.517 112.567 156.296C116.813 158.076 121.369 158.999 125.972 159.012C130.576 159.025 135.136 158.128 139.392 156.372C143.648 154.616 147.514 152.037 150.769 148.781C154.025 145.526 156.604 141.66 158.36 137.404C160.116 133.148 161.013 128.588 161 123.984C160.987 119.381 160.064 114.825 158.284 110.579C156.505 106.334 153.903 102.482 150.63 99.2449ZM149.842 123.937C149.827 137.105 139.103 147.829 125.937 147.842C112.771 147.855 102.033 137.118 102.033 123.937C102.033 110.757 112.757 100.033 125.937 100.033C139.118 100.033 149.842 110.757 149.842 123.937Z" fill="#2AF57A"/>
<path d="M151.336 98.5366C148.008 95.1911 144.05 92.5375 139.692 90.7291C135.332 88.9202 130.657 87.9927 125.937 88C118.829 88.0002 111.881 90.1079 105.972 94.0566C100.062 98.0055 95.4556 103.618 92.7356 110.185C90.0156 116.752 89.3039 123.977 90.6905 130.949C92.077 137.919 95.4989 144.321 100.524 149.347C103.853 152.713 107.814 155.388 112.181 157.219C116.548 159.049 121.234 159.998 125.969 160.012C130.705 160.025 135.396 159.102 139.773 157.296C144.151 155.49 148.128 152.837 151.476 149.488C154.825 146.14 157.478 142.163 159.284 137.785C161.09 133.408 162.013 128.717 162 123.981C161.987 119.246 161.037 114.56 159.207 110.193C157.377 105.827 154.702 101.866 151.336 98.5366ZM148.842 123.936C148.828 136.552 138.551 146.829 125.936 146.842C113.324 146.855 103.033 136.566 103.033 123.937C103.033 111.309 113.309 101.033 125.937 101.033C138.565 101.033 148.841 111.309 148.842 123.936Z" stroke="#2AF57A" stroke-width="2"/>
</g>
<path d="M150.983 98.8907C147.701 95.5913 143.798 92.9743 139.5 91.191L125.937 89V88.5C125.937 88.5 125.937 88.5 125.937 88.5C118.928 88.5001 112.077 90.5785 106.249 94.4724C100.422 98.3663 95.8797 103.901 93.1975 110.376C90.5154 116.852 89.8136 123.977 91.1809 130.851C92.5482 137.725 95.9229 144.039 100.878 148.995C104.161 152.314 108.068 154.953 112.374 156.758C116.681 158.563 121.301 159.499 125.971 159.512C130.64 159.525 135.266 158.615 139.583 156.834C143.899 155.053 147.821 152.437 151.123 149.135C154.425 145.833 157.041 141.911 158.822 137.595C160.603 133.278 161.513 128.652 161.5 123.983C161.487 119.313 160.551 114.692 158.746 110.386C156.941 106.08 154.303 102.174 150.983 98.8907ZM149.342 123.937C149.328 136.828 138.827 147.329 125.937 147.342C113.048 147.355 102.533 136.842 102.533 123.937C102.533 111.033 113.033 100.533 125.937 100.533C138.841 100.533 149.342 111.033 149.342 123.937Z" fill="#2AF57A" stroke="#2AF57A"/>
<g filter="url(#filter7_f_99_440)">
<path d="M150.275 99.5975L150.278 99.6004C153.505 102.791 156.069 106.588 157.823 110.773C159.577 114.958 160.487 119.448 160.5 123.986C160.513 128.523 159.628 133.019 157.898 137.213C156.167 141.408 153.624 145.219 150.416 148.428C147.207 151.636 143.396 154.179 139.201 155.91C135.007 157.64 130.511 158.525 125.974 158.512C121.436 158.499 116.946 157.589 112.761 155.835C108.576 154.081 104.779 151.517 101.588 148.29L101.586 148.288C96.7703 143.472 93.4905 137.336 92.1617 130.656C90.8329 123.976 91.5149 117.051 94.1214 110.759C96.7279 104.466 101.142 99.0879 106.805 95.3038C112.468 91.5198 119.126 89.5001 125.937 89.5L125.938 89.5C130.461 89.4929 134.94 90.3815 139.117 92.1146C143.294 93.8477 147.086 96.3909 150.275 99.5975ZM150.342 123.938V123.937C150.342 110.481 139.394 99.5329 125.937 99.5329C112.481 99.5329 101.533 110.481 101.533 123.937C101.533 137.394 112.495 148.355 125.938 148.342C139.38 148.329 150.327 137.381 150.342 123.938Z" stroke="url(#paint7_linear_99_440)"/>
</g>
<g filter="url(#filter8_f_99_440)">
<path d="M328.63 99.2449C325.394 95.9915 321.546 93.4112 317.308 91.6528C313.07 89.8944 308.526 88.9928 303.937 89C297.027 89.0001 290.273 91.0491 284.527 94.8881C278.782 98.7271 274.304 104.184 271.659 110.568C269.015 116.951 268.323 123.976 269.671 130.753C271.019 137.531 274.347 143.756 279.233 148.642C282.47 151.915 286.322 154.517 290.567 156.296C294.813 158.076 299.369 158.999 303.972 159.012C308.576 159.025 313.136 158.128 317.392 156.372C321.648 154.616 325.514 152.037 328.769 148.781C332.025 145.526 334.604 141.66 336.36 137.404C338.116 133.148 339.013 128.588 339 123.984C338.987 119.381 338.064 114.825 336.284 110.579C334.505 106.334 331.903 102.482 328.63 99.2449ZM327.842 123.937C327.827 137.105 317.103 147.829 303.937 147.842C290.771 147.855 280.033 137.118 280.033 123.937C280.033 110.757 290.757 100.033 303.937 100.033C317.118 100.033 327.842 110.757 327.842 123.937Z" fill="#2AF57A"/>
<path d="M329.336 98.5366C326.008 95.1911 322.05 92.5375 317.692 90.7291C313.332 88.9202 308.657 87.9927 303.937 88C296.829 88.0002 289.881 90.1079 283.972 94.0566C278.062 98.0055 273.456 103.618 270.736 110.185C268.016 116.752 267.304 123.977 268.691 130.949C270.077 137.919 273.499 144.321 278.524 149.347C281.853 152.713 285.814 155.388 290.181 157.219C294.548 159.049 299.234 159.998 303.969 160.012C308.705 160.025 313.396 159.102 317.773 157.296C322.151 155.49 326.128 152.837 329.476 149.488C332.825 146.14 335.478 142.163 337.284 137.785C339.09 133.408 340.013 128.717 340 123.981C339.987 119.246 339.037 114.56 337.207 110.193C335.377 105.827 332.702 101.866 329.336 98.5366ZM326.842 123.936C326.828 136.552 316.551 146.829 303.936 146.842C291.324 146.855 281.033 136.566 281.033 123.937C281.033 111.309 291.309 101.033 303.937 101.033C316.565 101.033 326.841 111.309 326.842 123.936Z" stroke="#2AF57A" stroke-width="2"/>
</g>
<path d="M328.983 98.8907C325.701 95.5913 321.798 92.9743 317.5 91.191L303.937 89V88.5C303.937 88.5 303.937 88.5 303.937 88.5C296.928 88.5001 290.077 90.5785 284.249 94.4724C278.422 98.3663 273.88 103.901 271.198 110.376C268.515 116.852 267.814 123.977 269.181 130.851C270.548 137.725 273.923 144.039 278.878 148.995C282.161 152.314 286.068 154.953 290.374 156.758C294.681 158.563 299.301 159.499 303.971 159.512C308.64 159.525 313.266 158.615 317.583 156.834C321.899 155.053 325.821 152.437 329.123 149.135C332.425 145.833 335.041 141.911 336.822 137.595C338.603 133.278 339.513 128.652 339.5 123.983C339.487 119.313 338.551 114.692 336.746 110.386C334.941 106.08 332.303 102.174 328.983 98.8907ZM327.342 123.937C327.328 136.828 316.827 147.329 303.937 147.342C291.048 147.355 280.533 136.842 280.533 123.937C280.533 111.033 291.033 100.533 303.937 100.533C316.841 100.533 327.342 111.033 327.342 123.937Z" fill="#2AF57A" stroke="#2AF57A"/>
<g filter="url(#filter9_f_99_440)">
<path d="M328.275 99.5975L328.278 99.6004C331.505 102.791 334.069 106.588 335.823 110.773C337.577 114.958 338.487 119.448 338.5 123.986C338.513 128.523 337.628 133.019 335.898 137.213C334.167 141.408 331.624 145.219 328.416 148.428C325.207 151.636 321.396 154.179 317.201 155.91C313.007 157.64 308.511 158.525 303.974 158.512C299.436 158.499 294.946 157.589 290.761 155.835C286.576 154.081 282.779 151.517 279.588 148.29L279.586 148.288C274.77 143.472 271.49 137.336 270.162 130.656C268.833 123.976 269.515 117.051 272.121 110.759C274.728 104.466 279.142 99.0879 284.805 95.3038C290.468 91.5198 297.126 89.5001 303.937 89.5L303.938 89.5C308.461 89.4929 312.94 90.3815 317.117 92.1146C321.294 93.8477 325.086 96.3909 328.275 99.5975ZM328.342 123.938V123.937C328.342 110.481 317.394 99.5329 303.937 99.5329C290.481 99.5329 279.533 110.481 279.533 123.937C279.533 137.394 290.495 148.355 303.938 148.342C317.38 148.329 328.327 137.381 328.342 123.938Z" stroke="url(#paint8_linear_99_440)"/>
</g>
<defs>
<filter id="filter0_f_99_440" x="-3.10596" y="0.608322" width="436.194" height="419.378" filterUnits="userSpaceOnUse" color-interpolation-filters="sRGB">
<feFlood flood-opacity="0" result="BackgroundImageFix"/>
<feBlend mode="normal" in="SourceGraphic" in2="BackgroundImageFix" result="shape"/>
<feGaussianBlur stdDeviation="20" result="effect1_foregroundBlur_99_440"/>
</filter>
<filter id="filter1_f_99_440" x="39" y="43" width="352" height="334.488" filterUnits="userSpaceOnUse" color-interpolation-filters="sRGB">
<feFlood flood-opacity="0" result="BackgroundImageFix"/>
<feBlend mode="normal" in="SourceGraphic" in2="BackgroundImageFix" result="shape"/>
<feGaussianBlur stdDeviation="0.5" result="effect1_foregroundBlur_99_440"/>
</filter>
<filter id="filter2_f_99_440" x="157.172" y="117.172" width="115.657" height="115.657" filterUnits="userSpaceOnUse" color-interpolation-filters="sRGB">
<feFlood flood-opacity="0" result="BackgroundImageFix"/>
<feBlend mode="normal" in="SourceGraphic" in2="BackgroundImageFix" result="shape"/>
<feGaussianBlur stdDeviation="10" result="effect1_foregroundBlur_99_440"/>
</filter>
<filter id="filter3_f_99_440" x="179" y="139" width="72" height="72" filterUnits="userSpaceOnUse" color-interpolation-filters="sRGB">
<feFlood flood-opacity="0" result="BackgroundImageFix"/>
<feBlend mode="normal" in="SourceGraphic" in2="BackgroundImageFix" result="shape"/>
<feGaussianBlur stdDeviation="0.5" result="effect1_foregroundBlur_99_440"/>
</filter>
<filter id="filter4_f_99_440" x="157.172" y="16.1715" width="115.657" height="115.657" filterUnits="userSpaceOnUse" color-interpolation-filters="sRGB">
<feFlood flood-opacity="0" result="BackgroundImageFix"/>
<feBlend mode="normal" in="SourceGraphic" in2="BackgroundImageFix" result="shape"/>
<feGaussianBlur stdDeviation="10" result="effect1_foregroundBlur_99_440"/>
</filter>
<filter id="filter5_f_99_440" x="179" y="38" width="72" height="72" filterUnits="userSpaceOnUse" color-interpolation-filters="sRGB">
<feFlood flood-opacity="0" result="BackgroundImageFix"/>
<feBlend mode="normal" in="SourceGraphic" in2="BackgroundImageFix" result="shape"/>
<feGaussianBlur stdDeviation="0.5" result="effect1_foregroundBlur_99_440"/>
</filter>
<filter id="filter6_f_99_440" x="69" y="67" width="114" height="114.012" filterUnits="userSpaceOnUse" color-interpolation-filters="sRGB">
<feFlood flood-opacity="0" result="BackgroundImageFix"/>
<feBlend mode="normal" in="SourceGraphic" in2="BackgroundImageFix" result="shape"/>
<feGaussianBlur stdDeviation="10" result="effect1_foregroundBlur_99_440"/>
</filter>
<filter id="filter7_f_99_440" x="90" y="88" width="72" height="72.0119" filterUnits="userSpaceOnUse" color-interpolation-filters="sRGB">
<feFlood flood-opacity="0" result="BackgroundImageFix"/>
<feBlend mode="normal" in="SourceGraphic" in2="BackgroundImageFix" result="shape"/>
<feGaussianBlur stdDeviation="0.5" result="effect1_foregroundBlur_99_440"/>
</filter>
<filter id="filter8_f_99_440" x="247" y="67" width="114" height="114.012" filterUnits="userSpaceOnUse" color-interpolation-filters="sRGB">
<feFlood flood-opacity="0" result="BackgroundImageFix"/>
<feBlend mode="normal" in="SourceGraphic" in2="BackgroundImageFix" result="shape"/>
<feGaussianBlur stdDeviation="10" result="effect1_foregroundBlur_99_440"/>
</filter>
<filter id="filter9_f_99_440" x="268" y="88" width="72" height="72.0119" filterUnits="userSpaceOnUse" color-interpolation-filters="sRGB">
<feFlood flood-opacity="0" result="BackgroundImageFix"/>
<feBlend mode="normal" in="SourceGraphic" in2="BackgroundImageFix" result="shape"/>
<feGaussianBlur stdDeviation="0.5" result="effect1_foregroundBlur_99_440"/>
</filter>
<linearGradient id="paint0_linear_99_440" x1="215" y1="44" x2="215" y2="376.488" gradientUnits="userSpaceOnUse">
<stop stop-color="#0F9FE6"/>
<stop offset="0.62" stop-color="#B374EC" stop-opacity="0.5"/>
<stop offset="0.91" stop-color="#FF60EF" stop-opacity="0"/>
</linearGradient>
<linearGradient id="paint1_linear_99_440" x1="215" y1="44" x2="215" y2="376.488" gradientUnits="userSpaceOnUse">
<stop stop-color="#0F9FE6"/>
<stop offset="0.62" stop-color="#B374EC" stop-opacity="0.5"/>
<stop offset="0.91" stop-color="#FF60EF" stop-opacity="0"/>
</linearGradient>
<linearGradient id="paint2_linear_99_440" x1="215" y1="44" x2="215" y2="376.488" gradientUnits="userSpaceOnUse">
<stop stop-color="#0F9FE6"/>
<stop offset="0.62" stop-color="#B374EC" stop-opacity="0.5"/>
<stop offset="0.91" stop-color="#FF60EF" stop-opacity="0"/>
</linearGradient>
<linearGradient id="paint3_linear_99_440" x1="215" y1="44" x2="215" y2="376.488" gradientUnits="userSpaceOnUse">
<stop stop-color="#0F9FE6"/>
<stop offset="0.62" stop-color="#B374EC" stop-opacity="0.5"/>
<stop offset="0.91" stop-color="#FF60EF" stop-opacity="0"/>
</linearGradient>
<linearGradient id="paint4_linear_99_440" x1="215" y1="44" x2="215" y2="376.488" gradientUnits="userSpaceOnUse">
<stop stop-color="#0F9FE6"/>
<stop offset="0.48" stop-color="white" stop-opacity="0.7"/>
<stop offset="0.91" stop-color="#FF60EF" stop-opacity="0"/>
</linearGradient>
<linearGradient id="paint5_linear_99_440" x1="215" y1="140" x2="215" y2="210" gradientUnits="userSpaceOnUse">
<stop stop-color="#FF60EF"/>
<stop offset="1" stop-color="white"/>
</linearGradient>
<linearGradient id="paint6_linear_99_440" x1="215" y1="39" x2="215" y2="109" gradientUnits="userSpaceOnUse">
<stop stop-color="white"/>
<stop offset="1" stop-color="#FF60EF"/>
</linearGradient>
<linearGradient id="paint7_linear_99_440" x1="91" y1="124.006" x2="161" y2="124.006" gradientUnits="userSpaceOnUse">
<stop stop-color="white"/>
<stop offset="1" stop-color="#2AF57A"/>
</linearGradient>
<linearGradient id="paint8_linear_99_440" x1="269" y1="124.006" x2="339" y2="124.006" gradientUnits="userSpaceOnUse">
<stop stop-color="#2AF57A"/>
<stop offset="1" stop-color="white"/>
</linearGradient>
</defs>
</svg>