<svg width="150" height="150" viewBox="0 0 150 150" fill="none" xmlns="http://www.w3.org/2000/svg">
<g filter="url(#filter0_b_560_374)">
<path d="M0 15C0 6.71573 6.71573 0 15 0H135C143.284 0 150 6.71573 150 15V135C150 143.284 143.284 150 135 150H15C6.71573 150 0 143.284 0 135V15Z" fill="#1D2025"/>
</g>
<g clip-path="url(#clip0_560_374)">
<path d="M120.617 29.1849C118.309 26.9023 115.564 25.0922 112.541 23.859C109.518 22.6258 106.276 21.994 103.004 22.0001C97.226 21.9877 91.6222 23.9434 87.1445 27.5348C82.6668 31.1263 79.5914 36.132 78.4408 41.7013C77.2903 47.2706 78.1357 53.0599 80.8333 58.0856C83.5308 63.1112 87.9142 67.0631 93.2386 69.2698C98.5629 71.4764 104.5 71.8016 110.04 70.1902C115.581 68.5788 120.383 65.1301 123.632 60.4302C126.88 55.7302 128.373 50.069 127.859 44.4085C127.344 38.748 124.853 33.4373 120.808 29.379L120.617 29.1849ZM120.055 46.5102C120.053 49.8256 119.052 53.066 117.179 55.8219C115.305 58.5779 112.643 60.7255 109.528 61.9934C106.414 63.2612 102.987 63.5924 99.6819 62.9451C96.3762 62.2977 93.3399 60.7009 90.9568 58.3564C88.5736 56.012 86.9506 53.0251 86.2929 49.7735C85.6352 46.5219 85.9723 43.1514 87.2616 40.0882C88.551 37.025 90.7347 34.4066 93.5367 32.564C96.3386 30.7213 99.6331 29.7372 103.004 29.7359C107.52 29.7481 111.847 31.5182 115.04 34.6595C118.233 37.8007 120.032 42.0576 120.044 46.4998L120.055 46.5102Z" fill="#545559"/>
<path d="M128 83.2775L122.538 77.9066L103.046 97.0814L72.9121 65.7204L53.4162 46.5477L72.9121 27.3729L67.4498 22L47.956 41.1769L28.4623 22L23 27.3729L42.4958 46.5477L23 65.7225L28.4623 71.0955L47.956 51.9186L67.4476 71.0934L97.5922 102.446L78.09 121.627L83.5502 126.996L103.046 107.819L122.538 126.996L128 121.623L108.506 102.448L128 83.2775Z" fill="#545559"/>
<path d="M30.196 85.2856C26.1786 89.3311 23.708 94.6193 23.2035 100.253C22.699 105.886 24.1917 111.518 27.4283 116.192C30.6648 120.866 35.4458 124.294 40.9599 125.896C46.474 127.497 52.3815 127.172 57.6797 124.976C62.978 122.78 67.3406 118.849 70.0272 113.849C72.7139 108.849 73.559 103.089 72.4191 97.5458C71.2793 92.0028 68.2247 87.0185 63.7738 83.4387C59.3229 79.859 53.7499 77.9044 48.0006 77.9067C44.7279 77.9006 41.4865 78.5323 38.4634 79.7651C35.4403 80.9979 32.6954 82.8075 30.387 85.0894L30.196 85.2856ZM48.0006 85.6425C51.3713 85.643 54.6662 86.6265 57.4686 88.4689C60.271 90.3113 62.4551 92.9297 63.7446 95.9931C65.0342 99.0564 65.3713 102.427 64.7132 105.679C64.0552 108.931 62.4317 111.918 60.0479 114.262C57.6642 116.606 54.6273 118.202 51.3212 118.849C48.0152 119.495 44.5885 119.163 41.4745 117.893C38.3605 116.624 35.6991 114.475 33.8268 111.718C31.9545 108.961 30.9553 105.72 30.9558 102.404C30.9619 97.9599 32.7598 93.6994 35.9551 90.5572C39.1505 87.4149 43.4823 85.6475 48.0006 85.6425Z" fill="#545559"/>
</g>
<defs>
<filter id="filter0_b_560_374" x="-4" y="-4" width="158" height="158" filterUnits="userSpaceOnUse" color-interpolation-filters="sRGB">
<feFlood flood-opacity="0" result="BackgroundImageFix"/>
<feGaussianBlur in="BackgroundImageFix" stdDeviation="2"/>
<feComposite in2="SourceAlpha" operator="in" result="effect1_backgroundBlur_560_374"/>
<feBlend mode="normal" in="SourceGraphic" in2="effect1_backgroundBlur_560_374" result="shape"/>
</filter>
<clipPath id="clip0_560_374">
<rect width="105" height="105" fill="white" transform="translate(23 22)"/>
</clipPath>
</defs>
</svg>
