<svg width="150" height="150" viewBox="0 0 150 150" fill="none" xmlns="http://www.w3.org/2000/svg">
<g filter="url(#filter0_b_187_4)">
<path d="M0 0H150V150H0V0Z" fill="#151515" fill-opacity="0.6"/>
</g>
<g clip-path="url(#clip0_187_4)">
<path d="M120.617 29.1848C118.309 26.9022 115.564 25.0921 112.541 23.8589C109.518 22.6257 106.276 21.9939 103.004 22C97.226 21.9876 91.6222 23.9433 87.1445 27.5348C82.6668 31.1262 79.5914 36.1319 78.4408 41.7012C77.2903 47.2705 78.1357 53.0599 80.8333 58.0855C83.5308 63.1112 87.9142 67.0631 93.2386 69.2697C98.5629 71.4763 104.5 71.8016 110.04 70.1901C115.581 68.5787 120.383 65.13 123.632 60.4301C126.88 55.7302 128.373 50.069 127.859 44.4084C127.344 38.7479 124.853 33.4373 120.808 29.3789L120.617 29.1848ZM120.055 46.5102C120.053 49.8255 119.052 53.066 117.179 55.8219C115.305 58.5778 112.643 60.7254 109.528 61.9933C106.414 63.2612 102.987 63.5924 99.6819 62.945C96.3762 62.2977 93.3399 60.7008 90.9568 58.3564C88.5736 56.0119 86.9506 53.0251 86.2929 49.7734C85.6352 46.5218 85.9723 43.1514 87.2616 40.0882C88.551 37.025 90.7347 34.4066 93.5367 32.5639C96.3386 30.7213 99.6331 29.7371 103.004 29.7359C107.52 29.748 111.847 31.5181 115.04 34.6594C118.233 37.8007 120.032 42.0576 120.044 46.4997L120.055 46.5102Z" fill="#545559"/>
<path d="M128 83.2775L122.538 77.9066L103.046 97.0814L72.9121 65.7204L53.4162 46.5477L72.9121 27.3729L67.4498 22L47.956 41.1769L28.4623 22L23 27.3729L42.4958 46.5477L23 65.7225L28.4623 71.0955L47.956 51.9186L67.4476 71.0934L97.5922 102.446L78.09 121.627L83.5502 126.996L103.046 107.819L122.538 126.996L128 121.623L108.506 102.448L128 83.2775Z" fill="#545559"/>
<path d="M30.1961 85.2856C26.1787 89.3311 23.7081 94.6193 23.2036 100.253C22.6991 105.886 24.1918 111.518 27.4283 116.192C30.6649 120.866 35.4459 124.294 40.96 125.895C46.4741 127.497 52.3815 127.172 57.6798 124.976C62.978 122.78 67.3407 118.849 70.0273 113.849C72.7139 108.849 73.559 103.089 72.4192 97.5458C71.2793 92.0028 68.2248 87.0184 63.7739 83.4387C59.323 79.859 53.75 77.9044 48.0006 77.9066C44.728 77.9006 41.4866 78.5322 38.4635 79.765C35.4404 80.9979 32.6954 82.8074 30.3871 85.0893L30.1961 85.2856ZM48.0006 85.6425C51.3714 85.6429 54.6663 86.6265 57.4687 88.4689C60.2711 90.3113 62.4552 92.9297 63.7447 95.993C65.0342 99.0564 65.3713 102.427 64.7133 105.679C64.0553 108.931 62.4318 111.917 60.048 114.262C57.6642 116.606 54.6273 118.202 51.3213 118.848C48.0152 119.495 44.5886 119.163 41.4746 117.893C38.3606 116.624 35.6992 114.475 33.8269 111.718C31.9545 108.961 30.9554 105.72 30.9558 102.404C30.962 97.9599 32.7599 93.6994 35.9552 90.5571C39.1505 87.4149 43.4823 85.6475 48.0006 85.6425Z" fill="#545559"/>
</g>
<defs>
<filter id="filter0_b_187_4" x="-4" y="-4" width="158" height="158" filterUnits="userSpaceOnUse" color-interpolation-filters="sRGB">
<feFlood flood-opacity="0" result="BackgroundImageFix"/>
<feGaussianBlur in="BackgroundImageFix" stdDeviation="2"/>
<feComposite in2="SourceAlpha" operator="in" result="effect1_backgroundBlur_187_4"/>
<feBlend mode="normal" in="SourceGraphic" in2="effect1_backgroundBlur_187_4" result="shape"/>
</filter>
<clipPath id="clip0_187_4">
<rect width="105" height="105" fill="white" transform="translate(23 22)"/>
</clipPath>
</defs>
</svg>
