<svg width="25" height="25" viewBox="0 0 25 25" xmlns="http://www.w3.org/2000/svg">
<path d="M20.1041 2.5L12.5 0L4.89581 2.5C3.22915 3.125 2.08331 4.6875 2.08331 6.45833V12.5C2.08331 19.375 9.37498 23.5417 11.5625 24.5833L12.5 25L13.3333 24.6875C15.625 23.75 22.9166 20.2083 22.9166 12.5V6.45833C22.9166 4.6875 21.7708 3.125 20.1041 2.5ZM20.8333 12.5C20.8333 18.9583 14.4791 21.9792 12.5 22.8125C10.5208 21.875 4.16665 18.2292 4.16665 12.5V6.45833C4.16665 5.52083 4.79165 4.79167 5.62498 4.47917L12.5 2.1875L19.375 4.47917C20.2083 4.79167 20.8333 5.52083 20.8333 6.45833V12.5ZM15.1041 9.89583C15.1041 10.9375 14.4791 11.875 13.5416 12.2917V16.6667H11.4583V12.2917C10.5208 11.875 9.89581 10.9375 9.89581 9.89583C9.89581 8.4375 11.0416 7.29167 12.5 7.29167C13.9583 7.29167 15.1041 8.4375 15.1041 9.89583Z"/>
</svg>
