<svg width="24" height="24" viewBox="0 0 24 24" fill="none" xmlns="http://www.w3.org/2000/svg">
<path d="M13.338 0.513475C12.9707 0.182911 12.4941 0 12 0C11.5059 0 11.0293 0.182911 10.662 0.513475L0 10.1095V20.5095C0 21.3582 0.337142 22.1721 0.937258 22.7722C1.53737 23.3723 2.35131 23.7095 3.2 23.7095H20.8C21.6487 23.7095 22.4626 23.3723 23.0627 22.7722C23.6629 22.1721 24 21.3582 24 20.5095V10.1095L13.338 0.513475ZM15 21.7065H9V16.6805C9 15.8848 9.31607 15.1218 9.87868 14.5592C10.4413 13.9965 11.2044 13.6805 12 13.6805C12.7956 13.6805 13.5587 13.9965 14.1213 14.5592C14.6839 15.1218 15 15.8848 15 16.6805V21.7065ZM22 20.5065C22 20.8247 21.8736 21.13 21.6485 21.355C21.4235 21.58 21.1183 21.7065 20.8 21.7065H17V16.6805C17 15.3544 16.4732 14.0826 15.5355 13.1449C14.5979 12.2073 13.3261 11.6805 12 11.6805C10.6739 11.6805 9.40215 12.2073 8.46447 13.1449C7.52678 14.0826 7 15.3544 7 16.6805V21.7065H3.2C2.88174 21.7065 2.57652 21.58 2.35147 21.355C2.12643 21.13 2 20.8247 2 20.5065V10.9995L12 1.99948L22 10.9995V20.5065Z" fill="white"/>
</svg>